<?xml version="1.0" encoding="UTF-8"?><svg id="Hearts" xmlns="http://www.w3.org/2000/svg" viewBox="0 0 50 50"><defs><style>.cls-1{fill:#e20e18;}</style></defs><path class="cls-1" d="M41.48,28.8l-12.64,13.23c-2.16,2.26-5.67,2.26-7.83,0L5.95,26.27c-4.7-4.92-4.92-13.21-.07-17.97,2.25-2.21,5.12-3.31,8-3.31s5.98,1.18,8.28,3.58l2.76,2.89,16.56,17.33Z"/><path class="cls-1" d="M47.67,17.25c0,3.14-1.13,6.26-3.42,8.66l-17.47,18.29c-1.02,1.07-2.67,1.07-3.69,0l-14.71-15.4L24.92,11.48l2.42-2.53c4.7-4.92,12.62-5.15,17.17-.08,2.12,2.36,3.16,5.36,3.16,8.38Z"/></svg>