<?xml version="1.0" encoding="UTF-8"?>
<svg id="Clubs" xmlns="http://www.w3.org/2000/svg" viewBox="0 0 50 50">
	<defs>
		<style>
			.cls-1{fill:#000;}
		</style>
	</defs>
	<g>
		<path class="cls-1" d="M9.55,20.18L21.4,7.78c2.03-2.12,5.32-2.12,7.34,0l14.12,14.77c4.41,4.61,4.61,12.38,.07,16.84-2.11,2.08-4.8,3.1-7.5,3.1s-5.61-1.11-7.76-3.36l-2.59-2.71L9.55,20.18Z" />
		<path class="cls-1" d="M3.75,31.02c0-2.94,1.06-5.87,3.21-8.12L23.34,5.75c.96-1,2.51-1,3.46,0l13.79,14.43-15.52,16.24-2.27,2.37c-4.41,4.61-11.83,4.83-16.09,.07-1.98-2.21-2.96-5.03-2.96-7.85Z" />
	</g>
	<path class="cls-1" d="M26.39,45h-2.74c-.39,0-.69-.35-.61-.74,.18-.86,.32-1.83,.38-2.9,.14-2.44-.18-4.51-.55-6.03h4.25c-.35,1.89-.58,4.24-.36,6.91,.06,.71,.14,1.39,.24,2.03,.06,.38-.23,.72-.61,.72Z" />
</svg>
