<?xml version="1.0" standalone="no"?>
<!DOCTYPE svg PUBLIC "-//W3C//DTD SVG 20010904//EN"
 "http://www.w3.org/TR/2001/REC-SVG-20010904/DTD/svg10.dtd">
<svg version="1.0" xmlns="http://www.w3.org/2000/svg"
 width="1871.000000pt" height="1871.000000pt" viewBox="0 0 1871.000000 1871.000000"
 preserveAspectRatio="xMidYMid meet">

<g transform="translate(0.000000,1871.000000) scale(0.100000,-0.100000)"
fill="#000000" stroke="none">
<path d="M9131 10664 c-405 -68 -778 -347 -965 -722 -152 -304 -178 -678 -71
-999 69 -207 169 -367 325 -523 256 -256 576 -390 935 -390 359 0 679 134 935
390 256 256 390 576 390 935 0 359 -134 679 -390 935 -200 201 -450 331 -720
375 -116 18 -325 18 -439 -1z"/>
</g>
</svg>
