<?xml version="1.0" standalone="no"?>
<!DOCTYPE svg PUBLIC "-//W3C//DTD SVG 20010904//EN"
 "http://www.w3.org/TR/2001/REC-SVG-20010904/DTD/svg10.dtd">
<svg version="1.0" xmlns="http://www.w3.org/2000/svg"
 width="1871.000000pt" height="1871.000000pt" viewBox="0 0 1871.000000 1871.000000"
 preserveAspectRatio="xMidYMid meet">

<g transform="translate(0.000000,1871.000000) scale(0.100000,-0.100000)"
fill="#000000" stroke="none">
<path d="M5131 14664 c-245 -41 -500 -170 -687 -346 -372 -353 -510 -895 -349
-1375 113 -339 356 -619 673 -777 566 -283 1261 -116 1646 394 261 346 336
797 201 1207 -68 206 -168 367 -325 523 -200 201 -450 331 -720 375 -116 18
-325 18 -439 -1z"/>
<path d="M13131 14664 c-405 -68 -778 -347 -965 -722 -152 -304 -178 -674 -70
-1001 229 -694 980 -1074 1671 -846 337 112 619 356 777 673 153 305 178 678
70 1002 -157 468 -563 817 -1044 895 -116 18 -325 18 -439 -1z"/>
<path d="M5135 6664 c-273 -48 -517 -175 -715 -374 -256 -256 -390 -576 -390
-935 0 -573 364 -1076 910 -1259 264 -88 565 -89 827 -1 207 69 367 169 523
325 256 255 390 577 390 935 0 646 -471 1202 -1109 1309 -115 20 -326 20 -436
0z"/>
<path d="M13135 6664 c-483 -84 -885 -431 -1039 -895 -129 -391 -71 -805 162
-1159 111 -169 317 -348 510 -444 649 -325 1449 -53 1776 602 89 178 136 381
136 587 0 359 -134 679 -390 935 -200 201 -445 328 -719 374 -115 20 -326 20
-436 0z"/>
</g>
</svg>
