<?xml version="1.0" standalone="no"?>
<!DOCTYPE svg PUBLIC "-//W3C//DTD SVG 20010904//EN"
 "http://www.w3.org/TR/2001/REC-SVG-20010904/DTD/svg10.dtd">
<svg version="1.0" xmlns="http://www.w3.org/2000/svg"
 width="1871.000000pt" height="1871.000000pt" viewBox="0 0 1871.000000 1871.000000"
 preserveAspectRatio="xMidYMid meet">

<g transform="translate(0.000000,1871.000000) scale(0.100000,-0.100000)"
fill="#000000" stroke="none">
<path d="M9240 14833 c-931 -35 -1728 -285 -2310 -724 -284 -214 -520 -469
-706 -761 -88 -138 -230 -424 -287 -581 -159 -431 -236 -864 -253 -1426 l-7
-221 1125 0 1125 0 6 158 c22 563 168 976 446 1253 189 189 405 297 714 356
73 14 146 18 352 18 290 0 396 -14 573 -76 471 -167 735 -558 735 -1089 0
-179 -22 -279 -92 -425 -121 -250 -276 -407 -806 -815 -132 -102 -294 -229
-360 -284 -145 -120 -416 -389 -509 -506 -269 -338 -445 -717 -531 -1145 -47
-233 -57 -350 -62 -732 l-5 -363 1201 0 1201 0 0 279 c0 449 42 676 176 943
150 299 339 503 819 883 453 359 626 522 800 755 203 271 334 605 392 995 25
168 25 663 0 849 -25 188 -62 366 -107 520 -297 1016 -1093 1725 -2255 2010
-415 101 -902 147 -1375 129z"/>
<path d="M9368 6479 c-724 -89 -1254 -734 -1187 -1445 31 -335 167 -617 408
-847 494 -470 1273 -500 1811 -70 314 252 491 622 491 1028 0 164 -17 276 -66
422 -69 206 -160 350 -324 514 -203 203 -424 323 -702 379 -117 24 -320 33
-431 19z"/>
</g>
</svg>
