<svg xmlns="http://www.w3.org/2000/svg" viewBox="0 0 68.3 70.13">
	<defs>
		<style>
			.cls-1{fill:none;stroke:#fff;stroke-linecap:round;stroke-miterlimit:10;stroke-width:2px;}.cls-2{fill:#fff;}
		</style>
	</defs>
	<g id="Layer_2" data-name="Layer 2">
		<g id="Layer_1-2" data-name="Layer 1">
			<path class="cls-1" d="M3.48,14.58C.79,11.76,1.25,7,4.51,3.84S12.59.49,15.28,3.31" />
			<line class="cls-1" x1="1" y1="18.02" x2="18.83" y2="1" />
			<line class="cls-1" x1="18.83" y1="1" x2="29.5" y2="1.5" />
			<line class="cls-1" x1="1" y1="18.02" x2="1" y2="28.69" />
			<line class="cls-1" x1="1.34" y1="28.86" x2="38.59" y2="69.13" />
			<line class="cls-1" x1="30.05" y1="1.46" x2="67.3" y2="41.74" />
			<line class="cls-1" x1="38.59" y1="69.13" x2="67.3" y2="41.74" />
			<ellipse class="cls-1" cx="19.08" cy="18.2" rx="4.83" ry="4.18" transform="translate(-7.29 18.2) rotate(-43.66)" />
			<path class="cls-1" d="M16.57,4.43a13.15,13.15,0,0,1,2.19,13.44" />
			<path class="cls-1" d="M15.84,19.15c.1.07.35.19.95,0a6.38,6.38,0,0,0,1.52-.84" />
			<path class="cls-2" d="M23.31,30l1.06-1,1.8.14c3,.23,4.66.23,5.55-.6a1.46,1.46,0,0,0-.08-2.27,3.84,3.84,0,0,0-2.15-1l.78-1.69a5.74,5.74,0,0,1,3.13,1.72c1.63,1.71,1.52,3.59.16,4.89s-3.14,1.27-5.16,1.09l-1.24-.14,0,0L29.85,34,28.4,35.34Z" />
			<path class="cls-2" d="M38.54,38.36c-2.32,2.22-4.82,2.8-6.65.89s-.94-4.48,1.19-6.52,4.78-2.81,6.64-.86S40.6,36.39,38.54,38.36Zm-3.78-3.87C33,36.14,32.61,37.34,33.25,38s1.87.24,3.58-1.39,2.2-2.79,1.53-3.49S36.51,32.82,34.76,34.49Z" />
			<path class="cls-2" d="M37.31,44.93l11.91-3.1.9.94L38.21,45.88Zm7.46-3.3c-1.58,1.5-3.35,1.29-4.39.2a2.85,2.85,0,0,1,.32-4.21,3,3,0,0,1,4.36-.15A2.77,2.77,0,0,1,44.77,41.63ZM42,38.89c-.8.75-1.1,1.55-.61,2.06s1.2.26,2.06-.55,1.15-1.5.63-2S42.75,38.17,42,38.89ZM46.81,50c-1.57,1.5-3.35,1.29-4.39.21A2.87,2.87,0,0,1,42.74,46c1.35-1.28,3.15-1.44,4.37-.16A2.78,2.78,0,0,1,46.81,50ZM44,47.3c-.79.74-1.1,1.56-.61,2.06s1.21.26,2.06-.56,1.16-1.49.65-2S44.79,46.58,44,47.3Z" />
		</g>
	</g>
</svg>
