<svg xmlns="http://www.w3.org/2000/svg" viewBox="0 0 39.59 62.98"><defs><style>.cls-1,.cls-3,.cls-4{fill:none;}.cls-1,.cls-2,.cls-3,.cls-4,.cls-5{stroke:#231f20;}.cls-1,.cls-2,.cls-3,.cls-5{stroke-linecap:round;}.cls-1,.cls-3,.cls-4,.cls-5{stroke-miterlimit:10;}.cls-1{stroke-width:2px;}.cls-2,.cls-5{fill:#231f20;}.cls-2{stroke-linejoin:round;}.cls-4{stroke-width:8px;}</style></defs><g id="Layer_2" data-name="Layer 2"><g id="Layer_1-2" data-name="Layer 1"><rect class="cls-1" x="19.31" y="37.08" width="0.92" height="22.28"/><path class="cls-2" d="M5.14,62.48V61.07a66,66,0,0,1,29.77,0v1.41Z"/><line class="cls-1" x1="38.59" y1="12.97" x2="20.6" y2="36.63"/><line class="cls-3" x1="0.89" y1="12.49" x2="38.52" y2="12.49"/><line class="cls-1" x1="1" y1="12.98" x2="19.08" y2="36.76"/><path class="cls-1" d="M7.25,19.41a7,7,0,0,1,3.68-1.06c1.41,0,1.67.53,3.69.78s1.84-.2,3.75.07c1.7.24,2.05.62,3.19.43s1.11-.51,2.2-.64a13.38,13.38,0,0,1,2.48.21c1.76.11,2.12-.17,3.26.14A6.47,6.47,0,0,1,31,20a5.3,5.3,0,0,1,.77.57"/><line class="cls-4" x1="11.54" y1="20.89" x2="22" y2="34.54"/><line class="cls-4" x1="28.84" y1="20.89" x2="18.39" y2="34.54"/><line class="cls-4" x1="29.59" y1="24.9" x2="25.22" y2="21.97"/><line class="cls-4" x1="20.36" y1="26.78" x2="20.64" y2="19.68"/><line class="cls-4" x1="13.84" y1="26.12" x2="14.12" y2="19.01"/><line class="cls-4" x1="11.72" y1="23.35" x2="11.89" y2="19.13"/><line class="cls-3" x1="37.4" y1="0.5" x2="25.46" y2="20.55"/><ellipse class="cls-5" cx="34.74" cy="4.97" rx="2.67" ry="1.45" transform="translate(11.27 31.06) rotate(-56.17)"/></g></g></svg>