<svg xmlns="http://www.w3.org/2000/svg" viewBox="0 0 39.02 62.74"><defs><style>.cls-1,.cls-3{fill:none;}.cls-1,.cls-2,.cls-3{stroke:#fff;stroke-miterlimit:10;}.cls-2{fill:#fff;}.cls-3{stroke-linecap:round;}</style></defs><g id="Layer_2" data-name="Layer 2"><g id="Layer_1-2" data-name="Layer 1"><g id="Layer_2-2" data-name="Layer 2"><g id="Layer_1-2-2" data-name="Layer 1-2"><rect class="cls-1" x="18.92" y="36.84" width="0.92" height="22.28"/><path class="cls-2" d="M4.75,62.24V60.83a65.92,65.92,0,0,1,29.77,0v1.41Z"/><line class="cls-1" x1="38.52" y1="12.25" x2="19.96" y2="36.84"/><line class="cls-3" x1="0.5" y1="12.25" x2="38.52" y2="12.25"/><line class="cls-1" x1="0.5" y1="12.25" x2="18.92" y2="36.84"/><path class="cls-2" d="M19.39,36.42,5.92,19.13a8.36,8.36,0,0,1,4-1c1.55,0,1.84.51,4.06.75s2-.2,4.12.06c1.87.24,2.26.6,3.51.42s1.22-.49,2.42-.62a17.69,17.69,0,0,1,2.72.2c1.94.11,2.33-.16,3.59.14.82.2,1.05.56,1.65.63a2,2,0,0,0,1-.13Z"/><line class="cls-1" x1="37.01" y1="0.26" x2="25.92" y2="18.88"/><ellipse class="cls-2" cx="34.35" cy="4.72" rx="2.67" ry="1.45" transform="translate(11.3 30.63) rotate(-56.17)"/></g></g></g></g></svg>