<svg xmlns="http://www.w3.org/2000/svg" viewBox="0 0 41.48 62.02"><defs><style>.cls-1,.cls-3,.cls-4,.cls-6{fill:none;}.cls-1,.cls-2,.cls-3,.cls-4,.cls-5,.cls-6,.cls-7{stroke:#231f20;stroke-linecap:round;stroke-miterlimit:10;}.cls-1,.cls-2{stroke-width:5px;}.cls-2,.cls-5,.cls-7{fill:#231f20;}.cls-3{stroke-width:4px;}.cls-4,.cls-7{stroke-width:2px;}</style></defs><g id="Layer_2" data-name="Layer 2"><g id="Layer_1-2" data-name="Layer 1"><line class="cls-1" x1="2.52" y1="59.51" x2="38.98" y2="59.33"/><line class="cls-1" x1="2.5" y1="59.52" x2="2.5" y2="48.87"/><line class="cls-1" x1="38.93" y1="58.8" x2="38.93" y2="48.16"/><path class="cls-1" d="M38.82,47.47a26.79,26.79,0,0,0-2-8.08c-2.61-6.13-6.73-8.31-8-8.92"/><path class="cls-1" d="M2.5,47.63A26.71,26.71,0,0,1,4.55,39.4c2.74-6.25,7.06-8.47,8.44-9.09"/><path class="cls-1" d="M38.82,13.31a26.79,26.79,0,0,1-2,8.08c-2.61,6.13-6.73,8.31-8,8.92"/><path class="cls-1" d="M2.74,13.31a27.1,27.1,0,0,0,2,8.08c2.61,6.13,6.73,8.31,8,8.92"/><line class="cls-1" x1="38.82" y1="13.15" x2="38.82" y2="2.5"/><line class="cls-1" x1="2.74" y1="13.15" x2="2.74" y2="2.5"/><line class="cls-1" x1="3.28" y1="2.59" x2="38.28" y2="2.59"/><path class="cls-1" d="M32.41,15.14a13.65,13.65,0,0,1-2.59,6.28,17.42,17.42,0,0,1-7.19,5.49"/><path class="cls-1" d="M9,15.14a13.24,13.24,0,0,0,2.7,6.28,18.25,18.25,0,0,0,7.53,5.49"/><path class="cls-1" d="M9,15.14c5.12,2.19,9-1.76,12.29-1.83a39.89,39.89,0,0,1,11.13,1.83"/><rect class="cls-2" x="14.11" y="17.33" width="13.41" height="4.48"/><path class="cls-3" d="M25.77,23.53c-.77,1.18-2.66,2.42-3.43,3.6s-1.45,1.85-1,3.15"/><path class="cls-4" d="M16.47,27c.79,1.21,2.7,2.49,3.48,3.69s1.31-1.1,2,0"/><path class="cls-1" d="M17.62,20c.78,1.2,2.7,2.48,3.48,3.68s.3,2.11,1,3.21"/><path class="cls-4" d="M26.56,26.51c-.91,1.39-3.06,2.91-4,4.3s-1.4-1.19-2.23.07"/><ellipse class="cls-5" cx="21.22" cy="28.37" rx="2.42" ry="4.84"/><ellipse class="cls-5" cx="20.85" cy="39.29" rx="0.57" ry="0.77" transform="translate(-6.63 4.31) rotate(-10.2)"/><line class="cls-6" x1="20.85" y1="37.39" x2="20.35" y2="38.92"/><line class="cls-6" x1="20.84" y1="37.39" x2="21.34" y2="38.92"/><ellipse class="cls-5" cx="20.85" cy="38.26" rx="0.13" ry="0.31"/><path class="cls-7" d="M33,55.19H8a.92.92,0,0,1-1-.79V52.09a4.75,4.75,0,0,1,.3-.57c2.25-3.76,8.44-5.26,8.71-4.9.14.19-1.11,1.12-8,4.67a22.89,22.89,0,0,1,5.6-2.38C20,47.15,28,47.77,33,51.29a11.18,11.18,0,0,1,1,.8,11.33,11.33,0,0,1-.3,2.87c-2.4,2-19.37-5.6-18.39-7.87.55-1.28,6.81-.7,10-.11s8.15,1.49,9,4.2C34.92,52.81,33.74,54.39,33,55.19Z"/><rect class="cls-7" x="6.97" y="53.17" width="27.56" height="2.2" transform="translate(41.5 108.55) rotate(180)"/></g></g></svg>