<svg xmlns="http://www.w3.org/2000/svg" viewBox="0 0 17.38 32.34"><defs><style>.cls-1,.cls-2{fill:#fff;stroke:#fff;stroke-linecap:round;}.cls-1{stroke-miterlimit:10;stroke-width:3px;}.cls-2{stroke-linejoin:round;stroke-width:0.5px;}</style></defs><g id="Layer_2" data-name="Layer 2"><g id="Layer_1-2" data-name="Layer 1"><polyline class="cls-1" points="10.42 20 10.63 26 12.97 30.84"/><polyline class="cls-1" points="4.64 30.84 4.97 25.6 7.17 20.37 9.9 20.37"/><rect class="cls-1" x="8" y="15.39" width="2.85" height="3.98" transform="matrix(0.98, 0.2, -0.2, 0.98, 3.64, -1.53)"/><path class="cls-1" d="M3.05,12.35a5.1,5.1,0,0,0,2.49,1.28c1.18.21,1.47-.32,2.81-.19a10.33,10.33,0,0,1,4.75,1.85l1.72,1.16"/><circle class="cls-1" cx="12.06" cy="8.59" r="1.64"/><line class="cls-1" x1="14.98" y1="16.82" x2="15.88" y2="20.37"/><rect class="cls-2" x="0.38" y="8.94" width="3.12" height="1.39" transform="matrix(0.96, -0.26, 0.26, 0.96, -2.48, 0.86)"/><line class="cls-2" x1="3.31" y1="8.54" x2="3.95" y2="8.75"/><rect class="cls-2" x="3.79" y="8.72" width="1.79" height="0.23" transform="translate(-2.17 1.56) rotate(-15.36)"/><line class="cls-2" x1="4.12" y1="9.37" x2="3.67" y2="9.88"/><circle class="cls-2" cx="11.06" cy="2.95" r="0.53"/><circle class="cls-2" cx="14.63" cy="4.03" r="0.54"/><circle class="cls-2" cx="12.8" cy="0.69" r="0.44"/></g></g></svg>