<?xml version="1.0" encoding="UTF-8"?>
<svg id="Lag_2" data-name="Lag 2" xmlns="http://www.w3.org/2000/svg" xmlns:xlink="http://www.w3.org/1999/xlink" viewBox="0 0 140.51 511.92">
	<defs>
		<style>
			.cls-1 {
			fill: #fff;
			}
			
			.cls-2 {
			fill: #d9000d;
			}
			
			.cls-3 {
			fill: url(#Ikke-navngivet_forløb_8);
			}
			
			.cls-4 {
			fill: #161615;
			}
		</style>
		<linearGradient id="Ikke-navngivet_forløb_8" data-name="Ikke-navngivet forløb 8" x1="70.26" y1="9.32" x2="70.26" y2="514.99" gradientUnits="userSpaceOnUse">
			<stop offset="0" stop-color="#48ff85" />
			<stop offset=".72" stop-color="#00dd4f" />
		</linearGradient>
	</defs>
	<g id="skabelon">
		<path class="cls-3" d="M37.06,24.3C35.47,3.31,48.26-1.42,66.72,.33c11.65,.75,29.76-4.25,34.75,9.95,.67,1.95,3.56,14.16,.03,13.97-.94,.25-.89,.83-.75,1.34,1.79,5.96,5.07,12.09,1.48,18.02-2.79,5.82,.3,12.85,.05,19.38,1.52,16.8,3.01,33.81,4.54,50.6,3.34,25.18,2.13,50.72,8,75.39,2.03,11.7,11.38,19.12,16.64,29.12,7.21,12.94,7.98,28.37,8.99,42.76,.17,53.02,.1,106.07-.69,159.04-1.3,24.52,2.58,49.72-1.82,73.87-5.97,19.12-23.04,18.28-39.8,18.08-26.25-.46-52.7,.72-78.79-.87-25.1-8.17-17.27-39.16-18.31-59.51-1.81-45.81-.35-91.79-.8-137.67,.77-25.66-2.07-51.82,2.23-77.06,1.52-19.08,19.35-30.22,23.31-48.1,4.53-17.64,3.28-36.34,6.02-54.15,1.13-18.99,3.13-38.01,5.16-57.06,0-10.61,2.71-20.63,2.25-31.31-1.57-2.84-2.43-6.08-2.83-9.29-1.45-3.46,7.69-13.98,.7-12.53Zm49.23,.72M10.06,299.53" />
	</g>
</svg>
