<?xml version="1.0" encoding="UTF-8"?>
<svg id="Lag_2" xmlns="http://www.w3.org/2000/svg" viewBox="0 0 51.01 32.6">
	<defs>
		<style>
			.cls-1{fill:#fff;}
		</style>
	</defs>
	<g id="House">
		<g>
			<path class="cls-1" d="M2.97,31.6c-1.08,0-1.96-.88-1.96-1.96V7.84c0-1.08,.88-1.96,1.96-1.96H14.26c.94,0,1.83-.5,2.32-1.3l1.35-2.19c.53-.87,1.46-1.38,2.48-1.38h10.19c1.02,0,1.95,.52,2.48,1.38l1.35,2.19c.49,.8,1.38,1.3,2.33,1.3h11.29c1.08,0,1.96,.88,1.96,1.96V29.63c0,1.08-.88,1.96-1.96,1.96H2.97ZM25.5,9.31c-.53,0-1.06,.04-1.59,.13-3.9,.64-7.07,3.81-7.71,7.71-.46,2.78,.31,5.58,2.11,7.7,1.8,2.12,4.42,3.33,7.19,3.33,.53,0,1.06-.04,1.59-.13,3.9-.64,7.07-3.81,7.71-7.71,.46-2.78-.31-5.58-2.11-7.7-1.8-2.12-4.42-3.33-7.19-3.33Z" />
			<path class="cls-1" d="M30.6,1.51c.83,0,1.62,.44,2.05,1.15l1.35,2.19c.58,.95,1.64,1.54,2.75,1.54h11.29c.8,0,1.46,.65,1.46,1.46V29.63c0,.8-.65,1.46-1.46,1.46H2.97c-.8,0-1.46-.65-1.46-1.46V7.84c0-.8,.65-1.46,1.46-1.46H14.26c1.11,0,2.17-.59,2.75-1.54l1.35-2.19c.44-.71,1.22-1.15,2.05-1.15h10.19m-5.09,27.17c.56,0,1.12-.05,1.68-.14,4.11-.67,7.45-4.01,8.12-8.12,.48-2.92-.33-5.88-2.22-8.1-1.89-2.23-4.65-3.51-7.58-3.51-.56,0-1.12,.05-1.68,.14-4.11,.67-7.45,4.01-8.12,8.12-.48,2.92,.33,5.88,2.22,8.1,1.89,2.23,4.65,3.51,7.58,3.51M30.6,.5h-10.19c-1.19,0-2.29,.61-2.91,1.62l-1.35,2.19c-.41,.66-1.12,1.06-1.9,1.06H2.97c-1.36,0-2.46,1.1-2.46,2.46V29.63c0,1.36,1.1,2.46,2.46,2.46H48.04c1.36,0,2.46-1.1,2.46-2.46V7.84c0-1.36-1.1-2.46-2.46-2.46h-11.29c-.77,0-1.49-.4-1.9-1.06l-1.35-2.19c-.62-1.01-1.72-1.62-2.91-1.62h0Zm-5.09,27.17c-5.43,0-9.72-4.84-8.81-10.44,.61-3.7,3.59-6.69,7.29-7.29,.51-.08,1.02-.12,1.51-.12,5.43,0,9.72,4.84,8.81,10.44-.61,3.7-3.59,6.69-7.29,7.29-.51,.08-1.02,.12-1.51,.12h0Z" />
		</g>
	</g>
</svg>
