<?xml version="1.0" encoding="UTF-8"?><svg id="Lag_2" xmlns="http://www.w3.org/2000/svg" xmlns:xlink="http://www.w3.org/1999/xlink" viewBox="0 0 40.41 44.63"><defs><style>.cls-1{fill:#fff;}.cls-2,.cls-3{fill:#e30613;}.cls-3{font-family:ArticulatCF-ExtraBold, 'Articulat CF';font-size:7.02px;}.cls-4{filter:url(#drop-shadow-2);}.cls-5{filter:url(#drop-shadow-3);}.cls-6{filter:url(#drop-shadow-1);}</style><filter id="drop-shadow-1" filterUnits="userSpaceOnUse"><feOffset dx="1" dy="1"/><feGaussianBlur result="blur" stdDeviation="1"/><feFlood flood-color="#000" flood-opacity=".03"/><feComposite in2="blur" operator="in"/><feComposite in="SourceGraphic"/></filter><filter id="drop-shadow-2" filterUnits="userSpaceOnUse"><feOffset dx="1" dy="1"/><feGaussianBlur result="blur-2" stdDeviation="1"/><feFlood flood-color="#000" flood-opacity=".03"/><feComposite in2="blur-2" operator="in"/><feComposite in="SourceGraphic"/></filter><filter id="drop-shadow-3" filterUnits="userSpaceOnUse"><feOffset dx="1" dy="1"/><feGaussianBlur result="blur-3" stdDeviation="1"/><feFlood flood-color="#000" flood-opacity=".03"/><feComposite in2="blur-3" operator="in"/><feComposite in="SourceGraphic"/></filter></defs><g id="Lag_3"><g id="card" class="cls-6"><rect class="cls-1" x="7.69" y="2.85" width="27.24" height="38.94" rx="2.8" ry="2.8" transform="translate(9.95 -6.37) rotate(22.07)"/><g id="heart"><ellipse class="cls-2" cx="19.97" cy="19.95" rx="3.09" ry="2.88" transform="translate(-6.23 30.44) rotate(-66.8)"/><ellipse class="cls-2" cx="24.26" cy="21.78" rx="3.09" ry="2.88" transform="translate(-5.32 35.5) rotate(-66.8)"/><path class="cls-2" d="M19.24,26.77l-2.07-5.82,5.49-1.35,2.8,4.91-5.64,2.51c-.24,.11-.5,0-.58-.25Z"/></g><text class="cls-3" transform="translate(15.81 7.29) rotate(22.07)"><tspan x="0" y="0">A</tspan></text><text class="cls-3" transform="translate(22.12 35.87) rotate(22.07) scale(1 -1)"><tspan x="0" y="0">A</tspan></text></g><g id="card-2" class="cls-4"><rect class="cls-1" x="3.2" y="1.97" width="27.24" height="38.94" rx="2.8" ry="2.8" transform="translate(4.42 -2.82) rotate(11.04)"/><g id="heart-2"><ellipse class="cls-2" cx="15.05" cy="19.37" rx="3.09" ry="2.88" transform="translate(-7.06 30) rotate(-77.84)"/><ellipse class="cls-2" cx="19.61" cy="20.35" rx="3.09" ry="2.88" transform="translate(-4.42 35.24) rotate(-77.84)"/><path class="cls-2" d="M15.64,26.21l-3.15-5.32,5.13-2.37,3.69,4.28-5.05,3.55c-.21,.15-.49,.09-.62-.13Z"/></g><text class="cls-3" transform="translate(8.55 7.74) rotate(11.04)"><tspan x="0" y="0">A</tspan></text><text class="cls-3" transform="translate(20.21 34.59) rotate(11.04) scale(1 -1)"><tspan x="0" y="0">A</tspan></text></g><g id="card-3" class="cls-5"><rect class="cls-1" x="0" y="1.21" width="27.24" height="38.94" rx="2.8" ry="2.8"/><g id="heart-3"><ellipse class="cls-2" cx="11.49" cy="18.99" rx="3.09" ry="2.88" transform="translate(-7.72 30.1) rotate(-88.88)"/><ellipse class="cls-2" cx="16.15" cy="19.08" rx="3.09" ry="2.88" transform="translate(-3.24 34.85) rotate(-88.88)"/><path class="cls-2" d="M13.37,25.58l-4.11-4.62,4.58-3.31,4.44,3.5-4.28,4.45c-.18,.19-.46,.18-.64-.01Z"/></g><text class="cls-3" transform="translate(2.88 8.82)"><tspan x="0" y="0">A</tspan></text><text class="cls-3" transform="translate(19.46 32.94) scale(1 -1)"><tspan x="0" y="0">A</tspan></text></g></g></svg>