<?xml version="1.0" encoding="UTF-8"?><svg id="Lag_2" xmlns="http://www.w3.org/2000/svg" xmlns:xlink="http://www.w3.org/1999/xlink" viewBox="0 0 345.17 368.99"><defs><style>.cls-1,.cls-2{fill:#fff;}.cls-3{fill:#e30613;}.cls-4{filter:url(#drop-shadow-2);}.cls-5{filter:url(#drop-shadow-1);}.cls-2{filter:url(#drop-shadow-3);}.cls-6{isolation:isolate;}</style><filter id="drop-shadow-1" filterUnits="userSpaceOnUse"><feOffset dx="0" dy="0"/><feGaussianBlur result="blur" stdDeviation="8"/><feFlood flood-color="#000" flood-opacity=".15"/><feComposite in2="blur" operator="in"/><feComposite in="SourceGraphic"/></filter><filter id="drop-shadow-2" filterUnits="userSpaceOnUse"><feOffset dx="0" dy="0"/><feGaussianBlur result="blur-2" stdDeviation="8"/><feFlood flood-color="#000" flood-opacity=".15"/><feComposite in2="blur-2" operator="in"/><feComposite in="SourceGraphic"/></filter><filter id="drop-shadow-3" filterUnits="userSpaceOnUse"><feOffset dx="0" dy="0"/><feGaussianBlur result="blur-3" stdDeviation="8"/><feFlood flood-color="#000" flood-opacity=".15"/><feComposite in2="blur-3" operator="in"/><feComposite in="SourceGraphic"/></filter></defs><g id="Lag_2-2"><g id="Lag_3"><g id="card" class="cls-5"><path class="cls-1" d="M171.98,16.38l159.57,64.3c11.11,4.76,16.67,17.47,11.91,28.58l-99.24,246.1c-4.76,11.11-17.47,16.67-28.58,11.91L56.07,302.97c-11.11-4.76-16.67-17.47-11.91-28.58L143.4,29.08c3.97-11.91,17.47-17.47,28.58-12.7Z"/></g><g id="card-2" class="cls-4"><path class="cls-1" d="M102.91,17.17l168.3,32.55c11.91,2.38,19.85,14.29,17.47,26.2l-50.01,259.6c-2.38,11.91-14.29,19.85-26.2,17.47l-168.3-32.55c-11.91-2.38-19.85-14.29-17.47-26.2L76.72,34.63c2.38-11.91,14.29-19.85,26.2-17.47Z"/></g><g id="card-3"><path class="cls-2" d="M46.55,24.31H218.03c11.91,0,22.23,10.32,22.23,22.23V310.91c0,11.91-10.32,22.23-22.23,22.23H46.55c-11.91,0-22.23-10.32-22.23-22.23V46.54c0-11.91,10.32-22.23,22.23-22.23Z"/><g id="heart-3"><ellipse class="cls-3" cx="115.68" cy="165.43" rx="24.61" ry="23.02" transform="translate(-51.98 277.85) rotate(-88.88)"/><ellipse class="cls-3" cx="152.74" cy="165.85" rx="24.61" ry="23.02" transform="translate(-16.06 315.33) rotate(-88.88)"/><path class="cls-3" d="M130.7,218.02l-32.55-36.52,36.52-26.2,34.93,27.79-34.14,34.93c-1.59,1.59-3.97,1.59-4.76,0h0Z"/></g><g class="cls-6"><path class="cls-3" d="M61.63,45.75h11.91l14.29,38.9h-9.53l-2.38-6.35h-15.88l-2.38,6.35h-9.53l13.5-38.9Zm11.91,25.4l-5.56-15.88h0l-5.56,15.88h11.11Z"/></g><g class="cls-6"><path class="cls-3" d="M179.92,275.98h9.53l2.38,6.35h15.88l2.38-6.35h9.53l-14.29,38.9h-11.91l-13.5-38.9Zm14.29,13.5l5.56,15.88h.79l5.56-15.88h-11.91Z"/></g></g></g></g></svg>