<svg xmlns="http://www.w3.org/2000/svg" xmlns:xlink="http://www.w3.org/1999/xlink" width="94.121" height="76.732" viewBox="0 0 94.121 76.732"><defs><filter id="a" x="0" y="0" width="94.121" height="76.732" filterUnits="userSpaceOnUse"><feOffset dy="3" input="SourceAlpha"/><feGaussianBlur stdDeviation="3" result="b"/><feFlood flood-opacity="0.161"/><feComposite operator="in" in2="b"/><feComposite in="SourceGraphic"/></filter></defs><g transform="translate(-249.732 -441.634)"><ellipse cx="1.901" cy="1.876" rx="1.901" ry="1.876" transform="translate(315.256 480.767)" fill="#fff" stroke="#fff" stroke-miterlimit="10" stroke-width="2"/><ellipse cx="1.901" cy="1.876" rx="1.901" ry="1.876" transform="translate(309.263 486.399)" fill="#fff" stroke="#fff" stroke-miterlimit="10" stroke-width="2"/><ellipse cx="1.901" cy="1.876" rx="1.901" ry="1.876" transform="translate(321.441 486.52)" fill="#fff" stroke="#fff" stroke-miterlimit="10" stroke-width="2"/><ellipse cx="1.901" cy="1.876" rx="1.901" ry="1.876" transform="translate(315.231 492.367)" fill="#fff" stroke="#fff" stroke-miterlimit="10" stroke-width="2"/><line x2="40.492" y2="0.109" transform="translate(277.752 472.777)" fill="none" stroke="#fff" stroke-miterlimit="10" stroke-width="5"/><line y2="12.881" transform="translate(276.893 481.908)" fill="none" stroke="#fff" stroke-linecap="round" stroke-miterlimit="10" stroke-width="5"/><line x1="12.881" transform="translate(270.415 488.291)" fill="none" stroke="#fff" stroke-linecap="round" stroke-miterlimit="10" stroke-width="5"/><g transform="matrix(1, 0, 0, 1, 249.73, 441.63)" filter="url(#a)"><path d="M289.6,480.957l.986-3.077c.056-.111-2.681,6.756-.986,9.188.429.649,1.585,1.362,3.619,1.581A5.711,5.711,0,0,1,298.3,492.6c1.287,3.246.033,8.006.033,8.006h18.534a15.49,15.49,0,1,1-14.952,19.552,17.238,17.238,0,0,0-.661-2.025l-2.826-.109h-6.3c-.174,2.559-.081.6-.444,2.049A15.343,15.343,0,0,1,276.614,531.5a15.534,15.534,0,0,1-15.381-15.378,15.812,15.812,0,0,1,15.7-15.695c-.206,0-.1,0,0,0" transform="translate(-249.73 -469.35)" fill="none" stroke="#fff" stroke-linecap="round" stroke-linejoin="round" stroke-miterlimit="10" stroke-width="5"/></g><path d="M612.874,450.37" transform="translate(-313.417)" fill="none" stroke="#fff" stroke-miterlimit="10" stroke-width="25"/><line x1="43.69" y1="0.459" transform="translate(275.897 472.777)" fill="none" stroke="#fff" stroke-linecap="round" stroke-miterlimit="10" stroke-width="5"/></g></svg>