<svg xmlns="http://www.w3.org/2000/svg" width="46.024" height="61.032" viewBox="0 0 46.024 61.032"><g transform="translate(0.574 -10.89)"><path d="M37.148,42.522H3.243L1.15,9.74H38.957Z" transform="translate(2.202 27.538)" fill="#ffe166"/><path d="M45.58,6.49l-1.493,22.5L41.925,61.6a2.908,2.908,0,0,1-2.793,2.827H8.791A2.918,2.918,0,0,1,6,61.6L2.738,6.49" transform="translate(-1.726 5.996)" fill="none" stroke="#fff" stroke-linecap="round" stroke-linejoin="round" stroke-width="3"/><path d="M2.066,16.275H39.56l.965-9.839c.264-2.656-1.282-5.045-3.4-5.262a5.983,5.983,0,0,0-1.626.05,7.249,7.249,0,0,0-3.33,1.52,5.669,5.669,0,0,0-2.458-1.086,5.477,5.477,0,0,0-4.057,1.086A5.759,5.759,0,0,0,21.917.038c-2.96-.434-4.89,2.489-5.022,2.706A6.144,6.144,0,0,0,13.8,1.658a5.953,5.953,0,0,0-3.634,1.086,8.951,8.951,0,0,0-4.6-1.353,8.653,8.653,0,0,0-1.163.067C2.331,1.725.851,4.13,1.128,6.753c.33,3.174.859,6.331.925,9.505Z" transform="translate(1.357 22.285)" fill="#fff"/></g></svg>