<svg xmlns="http://www.w3.org/2000/svg" width="46.024" height="71.923" viewBox="0 0 46.024 71.923"><g transform="translate(0.574)"><path d="M39.569,63.519H4.777L1.15,9.74H43.656Z" transform="translate(-0.138 6.541)" fill="#ffe166"/><path d="M45.58,6.49l-1.493,22.5L41.925,61.6a2.908,2.908,0,0,1-2.793,2.827H8.791A2.918,2.918,0,0,1,6,61.6L2.738,6.49" transform="translate(-1.726 5.996)" fill="none" stroke="#fff" stroke-linecap="round" stroke-linejoin="round" stroke-width="3"/><path d="M2.187,16.275H44.34l1.085-9.839a4.586,4.586,0,0,0-3.819-5.262,7.553,7.553,0,0,0-1.828.05,8.626,8.626,0,0,0-3.744,1.52,6.77,6.77,0,0,0-2.764-1.086,6.7,6.7,0,0,0-4.561,1.086A6.419,6.419,0,0,0,24.5.038c-3.328-.434-5.5,2.489-5.646,2.706a7.454,7.454,0,0,0-3.477-1.086A7.271,7.271,0,0,0,11.3,2.744,10.927,10.927,0,0,0,4.817,1.458c-2.333.267-4,2.673-3.685,5.3.371,3.174.966,6.331,1.04,9.505Z" transform="translate(-1.095 0.006)" fill="#fff"/><g transform="translate(14 28.341)"><g transform="translate(4.013 11.146)"><ellipse cx="1.874" cy="2.862" rx="1.874" ry="2.862" fill="#fff"/><ellipse cx="1.874" cy="2.862" rx="1.874" ry="2.862" transform="translate(3.01)" fill="#fff"/><ellipse cx="1.874" cy="2.862" rx="1.874" ry="2.862" transform="translate(6.255)" fill="#fff"/></g><path d="M9.014,0C4.035,0,0,3.194,0,7.14s4.035,7.14,9.014,7.14,9.014-3.194,9.014-7.14S13.993,0,9.014,0ZM5.886,8.254A1.807,1.807,0,1,1,7.694,6.447,1.81,1.81,0,0,1,5.886,8.254Zm6.248,0a1.807,1.807,0,1,1,1.807-1.807A1.81,1.81,0,0,1,12.134,8.254Z" transform="translate(0)" fill="#fff"/></g></g></svg>