<?xml version="1.0" encoding="UTF-8"?>
<svg id="Lag_2" xmlns="http://www.w3.org/2000/svg" viewBox="0 0 49.83 49.83">
	<defs>
		<style>
			.cls-1{fill:#fff;}
		</style>
	</defs>
	<g id="Lag_1-2">
		<g>
			<g>
				<g id="_Radial_gentagelse_">
					<g>
						<path class="cls-1" d="M43.71,28.61l3.05,6.25c.1,.4,.04,.82-.17,1.18l-1.02,1.79c-.21,.36-.54,.63-.93,.75l-6.95,.61,6.02-10.58Z" />
						<path class="cls-1" d="M45.08,37.55c-.13,.22-.32,.39-.56,.47l-5.82,.51,4.97-8.73,2.55,5.23c.05,.25,0,.5-.12,.72l-1.02,1.79m.98,.56l1.02-1.79c.29-.5,.36-1.1,.21-1.66l-3.54-7.25-7.08,12.44,8.07-.71c.56-.15,1.03-.52,1.32-1.02h0Z" />
					</g>
				</g>
				<g id="_Radial_gentagelse_-2">
					<g>
						<path class="cls-1" d="M36.94,39.83l-1.68,6.75c-.18,.37-.5,.65-.89,.8l-1.94,.72c-.39,.14-.81,.13-1.19-.03l-5.72-4,11.42-4.23Z" />
						<path class="cls-1" d="M32.24,47.56c-.24,.09-.49,.09-.73,0l-4.79-3.35,9.42-3.49-1.41,5.65c-.12,.22-.32,.38-.55,.47l-1.94,.72m.39,1.05l1.94-.72c.54-.2,.98-.61,1.22-1.13l1.95-7.83-13.42,4.97,6.64,4.65c.53,.24,1.12,.26,1.67,.06h0Z" />
					</g>
				</g>
				<g id="_Radial_gentagelse_-3">
					<g>
						<path class="cls-1" d="M24.54,44.07l-5.62,4.09c-.38,.17-.8,.18-1.19,.04l-1.95-.69c-.39-.14-.71-.42-.9-.79l-1.81-6.74,11.47,4.1Z" />
						<path class="cls-1" d="M15.97,46.97c-.24-.09-.44-.25-.56-.47l-1.51-5.64,9.46,3.38-4.71,3.42c-.23,.09-.49,.09-.73,0l-1.95-.69m-.38,1.06l1.95,.69c.54,.19,1.14,.16,1.67-.08l6.53-4.75-13.48-4.81,2.1,7.83c.25,.52,.69,.93,1.24,1.12h0Z" />
					</g>
				</g>
				<g id="_Radial_gentagelse_-4">
					<g>
						<path class="cls-1" d="M12.31,39.35l-6.94-.48c-.4-.12-.73-.38-.94-.73l-1.04-1.78c-.21-.36-.27-.78-.18-1.18l2.95-6.33,6.15,10.51Z" />
						<path class="cls-1" d="M3.88,36.06c-.13-.22-.17-.47-.13-.72l2.47-5.3,5.07,8.67-5.81-.4c-.24-.08-.43-.24-.56-.46l-1.04-1.78m-.97,.57l1.04,1.78c.29,.5,.77,.86,1.33,1.01l8.05,.56-7.23-12.35-3.42,7.35c-.15,.56-.06,1.15,.23,1.65h0Z" />
					</g>
				</g>
				<g id="_Radial_gentagelse_-5">
					<g>
						<path class="cls-1" d="M5.98,27.87L.98,23.04c-.23-.34-.32-.76-.25-1.17l.35-2.04c.07-.41,.29-.77,.62-1.02l6.32-2.95-2.04,12Z" />
						<path class="cls-1" d="M1.63,19.93c.04-.25,.17-.47,.36-.63l5.3-2.47-1.68,9.9L1.42,22.69c-.13-.22-.17-.47-.13-.72l.35-2.04m-1.11-.19l-.35,2.04c-.1,.57,.04,1.15,.37,1.63l5.81,5.61,2.4-14.11-7.35,3.43c-.47,.33-.79,.84-.89,1.41H.53Z" />
					</g>
				</g>
				<g id="_Radial_gentagelse_-6">
					<g>
						<path class="cls-1" d="M8.51,15.01l-.73-6.91c.05-.41,.24-.78,.56-1.05l1.57-1.34c.32-.27,.72-.4,1.13-.38l6.74,1.81-9.28,7.88Z" />
						<path class="cls-1" d="M10.28,6.13c.19-.16,.43-.25,.69-.25l5.64,1.51-7.65,6.5-.61-5.79c.04-.25,.17-.47,.36-.63l1.57-1.34m-.73-.86l-1.57,1.34c-.44,.37-.71,.91-.76,1.48l.85,8.03L18.97,6.86l-7.83-2.1c-.58-.05-1.15,.14-1.59,.51h0Z" />
					</g>
				</g>
				<g id="_Radial_gentagelse_-7">
					<g>
						<path class="cls-1" d="M18.71,6.79l3.89-5.76c.3-.29,.69-.44,1.11-.45h2.07c.42-.01,.81,.14,1.11,.42l4,5.72-12.18,.07Z" />
						<path class="cls-1" d="M25.77,1.12c.25,0,.49,.09,.69,.25l3.35,4.79-10.04,.06,3.25-4.83c.19-.16,.43-.25,.68-.25h2.07M25.77,0h-2.07c-.58,.02-1.13,.25-1.54,.66l-4.51,6.69,14.31-.09L27.31,.63C26.9,.22,26.35,0,25.77,0h0Z" />
					</g>
				</g>
				<g id="_Radial_gentagelse_-8">
					<g>
						<path class="cls-1" d="M31.81,7.04l6.68-1.92c.41-.03,.81,.1,1.13,.37l1.59,1.32c.32,.27,.52,.64,.57,1.05l-.61,6.95-9.37-7.77Z" />
						<path class="cls-1" d="M40.86,7.24c.2,.16,.32,.38,.37,.63l-.51,5.82-7.73-6.41,5.6-1.61c.25,0,.49,.08,.69,.24l1.59,1.32m.72-.86l-1.59-1.32c-.44-.37-1.02-.55-1.59-.49l-7.76,2.23,11.02,9.13,.7-8.07c-.05-.58-.33-1.11-.78-1.47h0Z" />
					</g>
				</g>
				<g id="_Radial_gentagelse_-9">
					<g>
						<path class="cls-1" d="M41.69,15.66l6.35,2.83c.33,.25,.56,.6,.63,1.01l.37,2.03c.07,.41,0,.82-.23,1.17l-4.93,4.94-2.19-11.98Z" />
						<path class="cls-1" d="M48.49,21.63c.05,.25,0,.5-.13,.72l-4.13,4.13-1.8-9.88,5.32,2.37c.19,.16,.32,.38,.37,.63l.37,2.03m1.1-.2l-.37-2.03c-.1-.57-.43-1.07-.9-1.4l-7.38-3.28,2.57,14.08,5.73-5.73c.33-.48,.46-1.06,.35-1.63h0Z" />
					</g>
				</g>
			</g>
			<path class="cls-1" d="M24.91,11.61c7.33,0,13.3,5.97,13.3,13.3s-5.97,13.3-13.3,13.3-13.3-5.97-13.3-13.3,5.97-13.3,13.3-13.3m0-7.42C13.47,4.19,4.19,13.47,4.19,24.91s9.28,20.72,20.72,20.72,20.72-9.28,20.72-20.72S36.35,4.19,24.91,4.19h0Z" />
		</g>
	</g>
</svg>
