<?xml version="1.0" standalone="no"?>
<!DOCTYPE svg PUBLIC "-//W3C//DTD SVG 20010904//EN"
 "http://www.w3.org/TR/2001/REC-SVG-20010904/DTD/svg10.dtd">
<svg version="1.0" xmlns="http://www.w3.org/2000/svg"
 width="833.000000pt" height="166.000000pt" viewBox="0 0 833.000000 166.000000"
 preserveAspectRatio="xMidYMid meet">

<g transform="translate(0.000000,166.000000) scale(0.100000,-0.100000)"
fill="#000000" stroke="none">
<path d="M886 1555 c-11 -8 -28 -15 -38 -15 -12 0 -18 -8 -18 -24 0 -35 14
-39 54 -15 25 15 36 28 36 45 0 28 -7 29 -34 9z"/>
<path d="M1548 1445 c-33 -29 -35 -35 -8 -35 11 0 20 4 20 8 0 8 47 32 90 46
8 2 -5 5 -30 5 -34 0 -52 -6 -72 -24z"/>
<path d="M1884 1461 c-84 -10 -130 -40 -138 -89 -3 -20 -6 -51 -6 -67 0 -17
-4 -35 -8 -40 -25 -28 -40 -354 -17 -355 6 0 11 17 12 37 13 233 25 320 50
369 l26 50 86 23 c102 26 109 25 204 -48 36 -28 75 -51 86 -51 29 0 162 73
209 114 26 23 30 66 5 66 -9 0 -26 -8 -37 -19 -12 -10 -54 -37 -95 -59 l-75
-41 -40 21 c-23 11 -57 36 -78 55 -41 40 -79 47 -184 34z"/>
<path d="M637 1394 c-11 -11 3 -24 24 -24 12 0 19 5 17 13 -5 14 -31 21 -41
11z"/>
<path d="M860 1381 c-12 -24 -13 -51 -2 -51 9 0 32 44 32 60 0 17 -19 11 -30
-9z"/>
<path d="M4041 902 c0 -477 0 -492 19 -492 10 0 22 5 25 10 4 6 6 216 6 467
l0 457 -25 25 -25 25 0 -492z"/>
<path d="M294 1356 c-8 -21 -30 -28 -109 -35 -66 -6 -70 -7 -70 -31 0 -23 4
-25 49 -28 49 -3 97 10 126 34 16 13 157 13 179 0 20 -13 25 25 5 44 -26 25
-172 38 -180 16z"/>
<path d="M3807 1308 c-7 -20 4 -128 14 -128 16 0 20 21 13 80 -6 57 -16 75
-27 48z"/>
<path d="M970 1275 c0 -28 4 -36 24 -41 30 -7 46 1 46 25 0 22 -30 51 -53 51
-13 0 -17 -9 -17 -35z"/>
<path d="M658 1158 c-2 -68 0 -127 4 -133 4 -5 8 50 8 123 0 73 -2 132 -4 132
-2 0 -6 -55 -8 -122z"/>
<path d="M1113 1209 c-69 -63 -92 -94 -80 -106 20 -19 119 63 152 127 27 52
-2 43 -72 -21z"/>
<path d="M1364 1217 c-9 -24 6 -44 18 -22 7 11 6 21 -1 28 -7 7 -12 6 -17 -6z"/>
<path d="M459 1173 c-12 -33 -8 -58 11 -58 19 0 42 48 34 69 -9 25 -33 19 -45
-11z"/>
<path d="M1340 1137 c-19 -10 -26 -22 -28 -52 -3 -37 -2 -39 11 -20 14 18 18
18 51 7 61 -22 102 21 58 61 -22 20 -57 22 -92 4z"/>
<path d="M850 1078 c1 -55 24 -101 73 -149 107 -104 123 -107 197 -41 31 27
42 43 37 55 -9 24 -19 21 -62 -13 -50 -40 -75 -38 -122 9 -52 54 -103 118
-103 130 0 5 -4 13 -10 16 -5 3 -10 0 -10 -7z"/>
<path d="M0 1035 c0 -25 4 -35 15 -35 9 0 20 -11 25 -25 14 -36 125 -148 143
-143 39 8 172 158 142 158 -16 0 -63 -32 -89 -59 -17 -17 -40 -31 -53 -31 -31
0 -104 68 -134 125 -29 54 -49 59 -49 10z"/>
<path d="M2465 993 c5 -38 1 -62 -19 -112 -26 -64 -26 -69 -26 -321 0 -182 -3
-259 -12 -268 -8 -8 -34 -10 -84 -5 -53 4 -85 2 -120 -11 -92 -30 -176 -46
-248 -46 -85 0 -216 31 -253 60 -14 11 -29 20 -34 20 -4 0 -28 14 -53 30 -44
30 -76 67 -89 102 -3 9 -24 28 -45 42 -43 27 -73 69 -92 131 -7 22 -16 45 -20
50 -10 14 -38 131 -45 190 -4 28 -10 72 -13 100 l-7 50 -19 -42 c-16 -37 -17
-50 -8 -100 6 -32 14 -83 17 -113 9 -83 71 -227 133 -310 108 -144 243 -234
407 -270 63 -14 186 -11 250 6 214 56 208 55 252 43 59 -16 91 -6 109 36 11
27 14 90 14 289 0 218 2 257 16 270 8 9 20 16 25 16 14 0 4 149 -13 182 -20
42 -29 34 -23 -19z"/>
<path d="M5387 1034 c-9 -9 46 -104 58 -101 19 6 16 47 -5 77 -20 29 -39 37
-53 24z"/>
<path d="M7118 1025 c-9 -9 26 -95 37 -92 17 6 17 47 1 73 -16 24 -27 29 -38
19z"/>
<path d="M5899 1008 c-8 -7 -27 -30 -42 -50 -35 -48 -62 -56 -91 -29 -28 26
-53 27 -61 1 -9 -27 3 -60 21 -60 8 0 28 -7 45 -15 27 -14 32 -14 58 1 16 10
35 28 42 41 7 13 24 26 38 30 36 8 51 22 51 47 0 40 -32 58 -61 34z"/>
<path d="M3644 976 c-16 -25 -40 -163 -30 -173 3 -3 10 7 16 23 26 73 44 104
60 104 18 0 51 -32 69 -67 6 -13 21 -28 33 -34 20 -11 21 -10 15 25 -4 24 -22
55 -54 91 -54 61 -83 69 -109 31z"/>
<path d="M6214 988 c-4 -6 -8 -177 -9 -378 -1 -202 -5 -372 -9 -379 -6 -9 -39
-12 -130 -10 -116 3 -121 3 -124 -17 -6 -39 18 -45 154 -42 l129 3 3 368 c2
393 2 394 51 367 19 -10 21 -8 21 18 0 54 -64 106 -86 70z"/>
<path d="M7420 984 c-20 -23 -1 -70 26 -66 12 1 27 -4 34 -13 19 -23 30 -18
30 14 0 34 -34 81 -60 81 -9 0 -23 -7 -30 -16z"/>
<path d="M4382 978 c-19 -19 -15 -68 6 -75 23 -8 72 -54 72 -68 0 -6 9 -29 20
-50 11 -22 25 -66 30 -97 5 -32 13 -66 19 -75 8 -16 10 -15 16 7 14 56 -68
290 -123 353 -18 20 -24 21 -40 5z"/>
<path d="M6539 808 c-2 -330 0 -348 47 -360 23 -6 34 -19 53 -60 27 -60 149
-185 208 -213 35 -17 38 -17 71 1 38 20 147 112 155 131 3 6 0 19 -7 28 -11
16 -20 11 -92 -49 -43 -36 -84 -66 -90 -66 -19 0 -126 84 -167 132 -49 56 -87
115 -87 134 0 8 -8 29 -17 47 -12 24 -17 62 -19 151 -2 87 -6 121 -16 127 -9
6 -13 33 -14 90 0 53 -4 84 -12 87 -8 2 -12 -47 -13 -180z"/>
<path d="M7747 973 c-3 -10 -5 -121 -3 -248 2 -246 6 -268 51 -279 17 -4 33
-22 51 -58 51 -101 207 -237 257 -224 36 9 177 134 177 157 0 38 -28 31 -91
-21 -90 -75 -101 -78 -146 -48 -74 49 -159 146 -199 226 -38 76 -38 78 -39
203 -1 104 -5 130 -18 144 -13 12 -17 34 -17 85 0 66 -13 100 -23 63z"/>
<path d="M7974 945 c-20 -31 -31 -110 -16 -119 6 -4 18 7 27 24 20 38 49 39
70 3 27 -51 55 -77 67 -65 8 8 5 23 -13 56 -65 122 -102 151 -135 101z"/>
<path d="M6771 934 c-14 -18 -21 -41 -21 -70 0 -51 12 -57 30 -15 19 47 36 45
74 -10 37 -50 56 -62 56 -33 0 35 -78 154 -101 154 -10 0 -27 -12 -38 -26z"/>
<path d="M4954 914 c-22 -52 -13 -68 24 -47 27 15 32 16 53 1 13 -8 42 -42 63
-74 21 -33 47 -70 56 -84 9 -14 22 -42 29 -62 7 -20 19 -42 27 -48 12 -10 14
-7 14 19 0 40 -39 125 -98 214 -81 122 -139 150 -168 81z"/>
<path d="M330 935 c0 -22 33 -77 55 -91 26 -17 28 -17 71 7 37 20 47 22 62 11
47 -34 62 -36 98 -17 33 18 37 18 64 2 32 -19 130 -23 161 -7 10 6 19 17 19
25 0 12 -16 15 -74 15 -74 0 -96 9 -109 42 -3 10 -19 5 -57 -15 l-52 -28 -22
20 c-27 25 -63 27 -111 4 -35 -17 -36 -17 -61 10 -23 25 -44 35 -44 22z"/>
<path d="M7086 851 c-14 -21 -64 -74 -112 -117 -157 -141 -152 -136 -135 -162
10 -17 97 46 198 145 37 37 77 72 88 78 28 15 42 59 25 79 -20 25 -38 19 -64
-23z"/>
<path d="M8285 858 c-14 -34 -75 -96 -182 -187 -49 -41 -63 -59 -63 -80 0 -15
3 -30 6 -34 8 -7 141 100 221 180 59 58 63 65 63 107 0 56 -24 63 -45 14z"/>
<path d="M1353 864 c-3 -8 -1 -20 6 -27 8 -8 11 -4 11 16 0 30 -7 35 -17 11z"/>
<path d="M1974 865 c-4 -9 7 -30 25 -50 l31 -36 11 25 c10 20 9 30 -5 51 -18
28 -53 33 -62 10z"/>
<path d="M1523 805 c-54 -13 -69 -27 -49 -44 18 -15 41 -8 80 23 35 29 25 36
-31 21z"/>
<path d="M1701 715 c0 -106 14 -174 31 -157 7 7 7 30 0 71 -6 33 -8 76 -5 94
3 21 -1 45 -10 63 -15 28 -16 25 -16 -71z"/>
<path d="M4746 723 c-3 -16 -5 -55 -5 -88 2 -84 -24 -171 -89 -305 -61 -125
-131 -208 -197 -236 -36 -15 -44 -31 -23 -52 23 -23 48 -11 116 56 62 61 162
212 162 246 0 13 43 136 53 153 12 19 37 3 37 -23 0 -42 53 -124 123 -190 136
-128 175 -145 236 -100 47 35 172 195 205 262 16 31 36 59 47 61 25 7 30 29
20 91 -13 85 -31 84 -50 -3 -12 -54 -52 -129 -107 -203 -60 -79 -139 -163
-160 -168 -14 -4 -38 6 -70 27 -63 42 -181 161 -200 202 -9 18 -22 43 -29 57
-10 17 -15 58 -15 133 0 107 0 107 -24 107 -19 0 -26 -7 -30 -27z"/>
<path d="M2823 645 c0 -22 2 -30 4 -17 2 12 2 30 0 40 -3 9 -5 -1 -4 -23z"/>
<path d="M3376 653 c-5 -17 1 -68 21 -183 6 -32 14 -48 30 -55 12 -5 28 -26
36 -46 22 -57 84 -144 122 -173 59 -46 84 -44 148 8 31 25 65 46 76 46 11 0
30 -15 42 -32 47 -70 82 -75 159 -23 66 45 100 47 100 6 0 -16 6 -31 15 -35 8
-3 65 -6 126 -7 125 -1 147 8 135 55 -5 21 -10 25 -24 18 -14 -6 -145 -8 -223
-3 -14 1 -16 9 -11 46 6 61 -14 68 -71 23 -23 -18 -61 -42 -83 -52 -48 -21
-70 -14 -104 34 -44 62 -61 61 -145 -9 -27 -23 -60 -41 -72 -41 -30 0 -130
102 -159 161 -26 52 -61 165 -72 229 -8 47 -35 67 -46 33z"/>
<path d="M3796 598 c-5 -21 -5 -46 0 -55 6 -15 8 -13 12 10 2 15 2 39 0 55 -4
25 -5 24 -12 -10z"/>
<path d="M2037 556 c-4 -10 -5 -21 -2 -24 9 -9 17 6 13 25 -3 17 -4 17 -11 -1z"/>
<path d="M5220 543 c0 -38 9 -63 22 -63 6 0 8 14 3 38 -9 49 -25 65 -25 25z"/>
<path d="M4530 527 c0 -23 4 -36 10 -32 13 8 13 35 0 55 -7 11 -10 5 -10 -23z"/>
<path d="M2823 455 c0 -33 2 -45 4 -27 2 18 2 45 0 60 -2 15 -4 0 -4 -33z"/>
<path d="M7504 325 c-16 -41 31 -136 89 -179 27 -20 28 -20 60 -1 65 39 138
101 144 123 10 39 -13 50 -44 21 -41 -37 -115 -89 -128 -89 -17 0 -60 50 -84
98 -23 46 -29 50 -37 27z"/>
<path d="M6306 305 c-3 -9 -6 -24 -6 -34 0 -25 55 -107 85 -127 26 -17 28 -17
72 7 47 26 143 109 143 125 0 5 -5 16 -10 24 -8 12 -13 11 -37 -11 -47 -43
-116 -89 -133 -89 -22 0 -69 51 -79 85 -8 33 -26 43 -35 20z"/>
<path d="M2510 272 c0 -29 8 -47 34 -75 44 -49 74 -48 170 3 41 22 82 40 91
40 8 0 34 -18 56 -40 53 -52 88 -53 175 -5 35 19 72 35 83 35 21 0 39 49 26
71 -8 13 -53 4 -75 -15 -23 -20 -120 -66 -139 -66 -9 0 -36 18 -59 40 -30 30
-50 40 -73 40 -19 0 -60 -16 -101 -40 -91 -52 -109 -52 -148 5 -17 25 -33 45
-35 45 -3 0 -5 -17 -5 -38z"/>
<path d="M7152 211 c-3 -7 -1 -21 5 -30 8 -13 33 -17 118 -21 121 -6 150 2
150 40 l0 25 -134 0 c-105 0 -135 -3 -139 -14z"/>
<path d="M3130 193 c0 -12 5 -25 12 -29 18 -11 231 -4 245 8 7 6 13 18 13 27
0 14 -17 16 -135 16 -132 0 -135 0 -135 -22z"/>
<path d="M5440 200 c0 -32 24 -39 144 -41 122 -1 140 4 133 41 -2 12 -26 15
-140 16 -125 2 -137 0 -137 -16z"/>
</g>
</svg>
