<?xml version="1.0" encoding="UTF-8"?><svg id="Lag_2" xmlns="http://www.w3.org/2000/svg" viewBox="0 0 50 50"><defs><style>.cls-1{fill:#1d1d1b;}</style></defs><g id="House"><g><path class="cls-1" d="M29.5,49.5v-10.76c0-1.12-.91-2.04-2.02-2.04h-5.05c-1.11,0-2.02,.91-2.02,2.04v10.76H4.18c-2.03,0-3.67-1.67-3.67-3.72V23.02c0-1.06,.45-2.07,1.23-2.78L22.56,1.45c.67-.61,1.54-.94,2.44-.94s1.77,.33,2.44,.94l20.82,18.8c.78,.71,1.23,1.72,1.23,2.78v22.75c0,2.05-1.65,3.72-3.67,3.72H29.5Z"/><path class="cls-1" d="M25,1.01c.78,0,1.53,.29,2.11,.81l20.82,18.8c.68,.61,1.06,1.49,1.06,2.4v22.75c0,1.77-1.42,3.22-3.17,3.22h-15.82v-10.25c0-1.4-1.13-2.54-2.52-2.54h-5.05c-1.39,0-2.52,1.14-2.52,2.54v10.25H4.18c-1.75,0-3.17-1.44-3.17-3.22V23.02c0-.92,.39-1.79,1.06-2.4L22.89,1.82c.58-.52,1.33-.81,2.11-.81m0-1.01c-.99,0-1.99,.36-2.78,1.07L1.39,19.87c-.89,.8-1.39,1.95-1.39,3.15v22.75c0,2.33,1.87,4.22,4.18,4.22H20.92v-11.26c0-.85,.68-1.53,1.51-1.53h5.05c.84,0,1.51,.69,1.51,1.53v11.26h16.82c2.31,0,4.18-1.89,4.18-4.22V23.02c0-1.2-.51-2.35-1.39-3.15L27.78,1.07c-.79-.72-1.79-1.07-2.78-1.07h0Z"/></g></g></svg>