<svg xmlns="http://www.w3.org/2000/svg" width="891.25" height="465.426" viewBox="0 0 891.25 465.426"><g transform="translate(-573.39 -81.997)"><text transform="translate(573.39 286.997)" fill="#fff" font-size="256" font-family="ArticulatCF-ExtraBold, Articulat CF" font-weight="800" letter-spacing="-0.01em"><tspan x="0" y="0">Party</tspan></text><text transform="translate(573.39 491.423)" fill="#fff" font-size="256" font-family="ArticulatCF-ExtraBold, Articulat CF" font-weight="800" letter-spacing="-0.01em"><tspan x="0" y="0">Bundle</tspan></text><g transform="translate(1269.7 100.423)"><path d="M893.56,124.766,785.306,87.7a14.786,14.786,0,0,0-18.781,9.2L744.266,161.9a11.912,11.912,0,0,1,10.841,10.218l7.527,53.863a11.922,11.922,0,0,1-10.159,13.458l-36.51,5.1-6.544,19.114a14.782,14.782,0,0,0,9.2,18.781l25.647,8.785,4.99-30.182a11.923,11.923,0,0,1,13.706-9.821l52.3,8.648a11.92,11.92,0,0,1,9.816,13.706l-7.088,42.895,8.88,3.039a14.79,14.79,0,0,0,18.786-9.2l57.1-166.758A14.785,14.785,0,0,0,893.56,124.766Z" transform="translate(-708.619 -86.893)" fill="#fff"/><g transform="translate(69.184 83.286)"><ellipse cx="16.346" cy="15.238" rx="16.346" ry="15.238" transform="matrix(0.324, -0.946, 0.946, 0.324, 0, 30.929)" fill="#d9000d"/><ellipse cx="16.346" cy="15.238" rx="16.346" ry="15.238" transform="matrix(0.324, -0.946, 0.946, 0.324, 23.33, 38.918)" fill="#d9000d"/><path d="M735.928,145.118l-13.209-29.876,28.39-9.282,16.714,24.764L739.1,146.206A2.254,2.254,0,0,1,735.928,145.118Z" transform="translate(-717.373 -88.461)" fill="#d9000d"/></g><text transform="translate(64.315 33.287) rotate(18.903)" fill="#d9000d" font-size="33" font-family="ArticulatCF-ExtraBold, Articulat CF" font-weight="800"><tspan x="0" y="0">A</tspan></text></g><g transform="translate(1244.908 181.686)"><rect width="64.327" height="64.327" rx="6" transform="matrix(0.99, -0.138, 0.138, 0.99, 0, 8.904)" fill="#fff"/><circle cx="5.598" cy="5.598" r="5.598" transform="translate(14.8 14.572)" fill="#161615"/><circle cx="5.598" cy="5.598" r="5.598" transform="translate(17.316 32.579)" fill="#161615"/><circle cx="5.598" cy="5.598" r="5.598" transform="translate(19.833 50.586)" fill="#161615"/><circle cx="5.598" cy="5.598" r="5.598" transform="translate(41.582 10.829)" fill="#161615"/><circle cx="5.598" cy="5.598" r="5.598" transform="translate(44.099 28.836)" fill="#161615"/><circle cx="5.598" cy="5.598" r="5.598" transform="translate(46.615 46.843)" fill="#161615"/></g><g transform="translate(1306.946 270.001)"><rect width="64.327" height="64.327" rx="6" transform="translate(10.489 0) rotate(9.385)" fill="#fff"/><circle cx="5.598" cy="5.598" r="5.598" transform="translate(31.38 31.379)" fill="#161615"/><circle cx="5.598" cy="5.598" r="5.598" transform="translate(15.075 47.113)" fill="#161615"/><circle cx="5.598" cy="5.598" r="5.598" transform="translate(47.685 15.646)" fill="#161615"/></g></g></svg>