<?xml version="1.0" encoding="utf-8"?>
<!-- Generator: Adobe Illustrator 26.5.0, SVG Export Plug-In . SVG Version: 6.00 Build 0)  -->
<svg version="1.1" id="Lag_1" xmlns="http://www.w3.org/2000/svg" xmlns:xlink="http://www.w3.org/1999/xlink" x="0px" y="0px"
	 viewBox="0 0 891.2 465.4" style="enable-background:new 0 0 891.2 465.4;" xml:space="preserve">
<style type="text/css">
	.st0{enable-background:new    ;}
	.st1{fill:#FFFFFF;}
	.st2{fill:#D9000D;}
	.st3{fill:#161615;}
</style>
<g transform="translate(-573.39 -81.997)">
	<g class="st0">
		<path class="st1" d="M586.4,107.8h74.2c49.2,0,69.9,25.9,69.9,60.9c0,35.3-20.7,61.2-69.9,61.2h-31.5V287h-42.8V107.8z
			 M659.1,192.5c19.2,0,27.1-9.7,27.1-23.8c0-13.8-7.9-23.6-27.1-23.6h-30v47.4H659.1z"/>
		<path class="st1" d="M733.6,251.4c0-31.2,26.1-36.6,48.1-39.9l20-3.1c11.8-1.8,15.4-3.3,15.4-11.8v-0.3c0-12.3-8.4-15.1-17.4-15.1
			c-9.5,0-20,2.6-20,15.6v2.8h-39.2v-6.9c0-25.9,16.9-41.5,60.2-41.5c41.2,0,57.6,14.8,57.6,43V287h-40.2v-23h-1.8
			c-2,6.7-11.8,25.6-40.2,25.6C755.1,289.6,733.6,279.3,733.6,251.4z M791,259.9c14.3,0,26.1-9.2,26.1-19.5v-12.5
			c-2.3,2.8-9,3.6-12.8,4.4l-16.6,3.1c-9,2-12,6.9-12,12.3C775.6,253.7,779,259.9,791,259.9z"/>
		<path class="st1" d="M882.9,153.9h42v33h0.8c5.1-21,17.7-34.6,37.9-34.6c2.8,0,6.1,0.3,10.2,1.3V189c-4.4-0.5-7.4-0.8-10.8-0.8
			c-18.4,0-38.1,9.5-38.1,43V287h-42V153.9z"/>
		<path class="st1" d="M1005.8,244.8v-58.4H983v-32.5h22.8v-34.8h42v34.8h26.1v32.5h-26.1v52.5c0,9.2,2.6,16.6,16.1,16.6
			c2.8,0,5.1,0,11-0.5v31c-6.4,1.8-14.1,2.8-22,2.8C1024.2,288.8,1005.8,275.7,1005.8,244.8z"/>
		<path class="st1" d="M1130.7,291.9c2.8-6.4,2.6-10.5-0.8-18.4l-48.4-119.6h42.8l28.4,79.6l29.2-79.6h43l-53.8,131.6
			c-17.9,43.8-35.1,57.6-76.3,53.2v-35.3C1122.5,307,1128.4,297,1130.7,291.9z"/>
	</g>
	<g class="st0">
		<path class="st1" d="M586.4,312.2h74.2c40.7,0,59.4,17.7,59.4,45.1c0,20-9.2,30.2-25.6,35.6c27.4,7.4,38.1,24.1,38.1,45.6
			c0,28.9-20,53-68.4,53h-77.8V312.2z M659.1,384.2c8.4,0,17.7-4.6,17.7-18.4c0-13.3-9.2-17.4-17.7-17.4h-30v35.8H659.1z
			 M662.7,455.3c19.7,0,25.3-10.8,25.3-21.8c0-11.5-5.6-22.5-25.3-22.5h-33.5v44.3H662.7z"/>
		<path class="st1" d="M813.5,459.4c13.3,0,24.6-7.4,24.6-26.4v-74.8h42v133.1h-42v-28.2h-1.5c-2.6,13.1-15.4,30.7-41.5,30.7
			c-25.9,0-45.6-17.2-45.6-50.7v-85h42v74.8C791.5,452,800.2,459.4,813.5,459.4z"/>
		<path class="st1" d="M970.2,390.3c-13.3,0-24.6,7.4-24.6,26.4v74.8h-42V358.3h42v28.2h1.5c2.6-13.1,15.4-30.7,41.5-30.7
			c25.9,0,45.6,17.2,45.6,50.7v85h-42v-74.8C992.2,397.7,983.5,390.3,970.2,390.3z"/>
		<path class="st1" d="M1051.1,424.9c0-49.2,30.7-69.1,57.9-69.1c19.7,0,33.3,10.5,36.9,20.5v-64h42v179.2h-42v-17.9
			c-3.6,10-17.2,20.5-36.9,20.5C1081.8,494,1051.1,474.3,1051.1,424.9z M1119.4,459.2c14.6,0,28.2-10.8,28.2-34.3
			s-13.6-34.3-28.2-34.3c-14.8,0-28.9,10.8-28.9,34.3S1104.6,459.2,1119.4,459.2z"/>
		<path class="st1" d="M1211.3,312.2h42v179.2h-42V312.2z"/>
		<path class="st1" d="M1270.2,424.4c0-49.7,32.3-68.6,67.8-68.6c34.3,0,64.5,17.2,64.5,69.1c0,4.9-0.3,7.4-0.8,10.5h-91.9
			c2.3,19.5,12.5,26.9,28.9,26.9c17.2,0,22.8-7.2,25.1-15.9h36.9c-6.1,30.7-30,47.6-62.7,47.6C1305,494,1270.2,476.1,1270.2,424.4z
			 M1362.9,411c-0.8-11.5-6.7-23.6-25.9-23.6c-15.6,0-24.3,8.2-26.9,23.6H1362.9z"/>
	</g>
	<g transform="translate(1269.7 100.423)">
		<path class="st1" d="M184.9,37.9L76.7,0.8C69-1.8,60.6,2.3,57.9,10c0,0,0,0,0,0L35.6,75c5.6,0.4,10.1,4.7,10.8,10.2l7.5,53.9
			c0.9,6.5-3.6,12.5-10.2,13.5c0,0,0,0,0,0l-36.5,5.1l-6.5,19.1c-2.6,7.7,1.5,16.1,9.2,18.8c0,0,0,0,0,0l25.6,8.8l5-30.2
			c1.1-6.5,7.2-10.9,13.7-9.8l52.3,8.6c6.5,1.1,10.9,7.2,9.8,13.7c0,0,0,0,0,0l-7.1,42.9l8.9,3c7.7,2.6,16.1-1.5,18.8-9.2
			c0,0,0,0,0,0l57.1-166.8C196.8,48.9,192.7,40.5,184.9,37.9C184.9,37.9,184.9,37.9,184.9,37.9z"/>
		<g transform="translate(69.184 83.286)">
			<ellipse transform="matrix(0.324 -0.9461 0.9461 0.324 -5.9776 32.4398)" class="st2" cx="19.7" cy="20.4" rx="16.3" ry="15.2"/>
			<ellipse transform="matrix(0.324 -0.9461 0.9461 0.324 2.235 59.9116)" class="st2" cx="43" cy="28.4" rx="16.3" ry="15.2"/>
			<path class="st2" d="M18.6,56.7L5.3,26.8l28.4-9.3l16.7,24.8L21.7,57.7c-1.1,0.6-2.5,0.2-3.1-0.9C18.6,56.8,18.6,56.7,18.6,56.7z
				"/>
		</g>
		<g class="st0">
			<path class="st2" d="M80.1,14.3l6.8,2.3l0.3,24.5l-5.5-1.9l0-4.1l-8.8-3l-2.5,3.3l-5.5-1.9L80.1,14.3z M81.7,30.8l0.1-10
				l-0.3-0.1l-6.1,7.9L81.7,30.8z"/>
		</g>
	</g>
	<g transform="translate(1244.908 181.686)">
		<path class="st1" d="M5.9,8.1l51.8-7.2C61,0.4,64.1,2.7,64.5,6l7.2,51.8c0.5,3.3-1.8,6.3-5.1,6.8l-51.8,7.2
			c-3.3,0.5-6.3-1.8-6.8-5.1L0.8,14.8C0.4,11.6,2.7,8.5,5.9,8.1z"/>
		<circle class="st3" cx="20.4" cy="20.2" r="5.6"/>
		<circle class="st3" cx="22.9" cy="38.2" r="5.6"/>
		<circle class="st3" cx="25.4" cy="56.2" r="5.6"/>
		<circle class="st3" cx="47.2" cy="16.4" r="5.6"/>
		<circle class="st3" cx="49.7" cy="34.4" r="5.6"/>
		<circle class="st3" cx="52.2" cy="52.4" r="5.6"/>
	</g>
	<g transform="translate(1306.946 270.001)">
		<path class="st1" d="M16.4,1L68,9.5c3.3,0.5,5.5,3.6,4.9,6.9L64.4,68c-0.5,3.3-3.6,5.5-6.9,4.9L5.9,64.4c-3.3-0.5-5.5-3.6-4.9-6.9
			L9.5,5.9C10.1,2.7,13.1,0.4,16.4,1z"/>
		<circle class="st3" cx="37" cy="37" r="5.6"/>
		<circle class="st3" cx="20.7" cy="52.7" r="5.6"/>
		<circle class="st3" cx="53.3" cy="21.2" r="5.6"/>
	</g>
</g>
</svg>
