<?xml version="1.0" standalone="no"?>
<!DOCTYPE svg PUBLIC "-//W3C//DTD SVG 20010904//EN"
 "http://www.w3.org/TR/2001/REC-SVG-20010904/DTD/svg10.dtd">
<svg version="1.0" xmlns="http://www.w3.org/2000/svg"
 width="1200.000000pt" height="602.000000pt" viewBox="0 0 1200.000000 602.000000"
 preserveAspectRatio="xMidYMid meet">

<g transform="translate(0.000000,602.000000) scale(0.100000,-0.100000)"
fill="#000000" stroke="none">
<path d="M0 3010 l0 -3010 75 0 75 0 -6 43 c-3 24 1 68 10 102 23 91 74 257
92 301 9 21 19 53 21 69 3 17 9 35 14 41 19 23 21 111 6 219 -10 71 -12 128
-7 160 4 28 8 42 9 33 0 -10 6 -18 12 -18 6 0 8 11 4 28 -3 17 2 59 15 103 11
40 20 89 21 109 1 49 57 -176 64 -260 21 -245 37 -406 45 -475 6 -44 11 -132
11 -195 1 -75 4 -104 9 -85 l8 30 1 -29 c1 -27 2 -28 19 -14 9 8 25 18 35 22
11 3 21 15 24 26 6 21 18 26 27 12 8 -13 -72 -94 -85 -86 -18 11 -29 -17 -29
-78 l0 -58 5765 0 5765 0 0 3010 0 3010 -55 0 c-54 0 -56 -1 -62 -30 -6 -33
-66 -90 -95 -90 -20 0 -68 -42 -68 -59 0 -38 120 -206 189 -263 16 -14 36 -39
45 -56 21 -41 6 -68 -42 -77 -58 -11 -124 26 -233 130 -102 98 -167 205 -176
293 -3 25 -9 56 -14 69 -5 13 -9 38 -9 54 l0 29 -2015 0 c-1108 0 -2015 -4
-2015 -8 0 -5 11 -14 25 -20 15 -7 25 -20 25 -32 0 -13 7 -20 19 -20 17 0 47
-50 42 -72 0 -5 3 -8 9 -8 5 0 10 -6 10 -14 0 -8 9 -21 19 -28 11 -8 32 -45
47 -83 23 -56 29 -65 36 -49 6 13 7 6 4 -23 -2 -22 1 -46 6 -51 17 -17 5 -57
-17 -57 -11 0 -19 -6 -17 -12 1 -7 3 -18 5 -25 4 -20 -36 -22 -50 -2 -10 13
-13 14 -13 3 -1 -9 -5 -7 -12 6 -17 31 -27 34 -100 34 -76 0 -104 14 -137 71
-11 19 -43 57 -71 84 -27 27 -50 54 -50 59 0 4 -11 23 -25 41 -31 41 -85 159
-85 186 0 20 -6 20 -249 20 l-249 0 -16 -40 c-9 -22 -16 -53 -16 -68 0 -15 -5
-33 -11 -39 -14 -14 -36 -52 -45 -75 -3 -10 -11 -18 -16 -18 -5 0 -7 -9 -3
-19 3 -11 1 -22 -5 -26 -14 -8 -4 -156 10 -165 6 -4 12 -14 14 -22 2 -16 73
-88 86 -88 9 0 20 36 20 70 1 55 75 110 150 110 60 0 81 -9 132 -58 l38 -36
38 42 c37 40 42 42 95 42 50 0 59 -3 87 -32 43 -46 57 -96 37 -134 -37 -71
-93 -100 -172 -87 -26 4 -40 14 -55 40 -19 32 -40 37 -40 9 0 -7 -9 -21 -20
-31 -11 -10 -20 -24 -20 -32 0 -7 -7 -16 -15 -19 -8 -4 -15 -10 -15 -15 0 -4
7 -6 15 -3 9 4 18 -1 21 -11 4 -10 28 -31 53 -47 39 -24 46 -34 46 -61 0 -18
-4 -38 -10 -45 -24 -32 -58 -61 -67 -56 -4 3 -13 -8 -19 -25 -6 -17 -15 -28
-20 -25 -5 3 -9 0 -9 -6 0 -6 -10 -2 -22 9 -20 19 -44 20 -33 0 3 -5 -2 -6
-11 -2 -12 4 -15 3 -10 -5 4 -7 1 -15 -8 -18 -11 -4 -15 -22 -14 -75 0 -61 3
-69 19 -69 11 0 19 -7 20 -17 0 -11 3 -13 6 -5 7 17 21 15 26 -5 4 -14 5 -12
6 5 0 12 6 22 12 22 5 0 8 4 4 9 -3 5 -1 13 5 16 6 4 8 16 5 28 -5 19 -4 19 5
5 8 -13 3 -36 -22 -100 -30 -76 -35 -83 -58 -80 -14 2 -27 6 -30 9 -3 3 -5 95
-5 205 0 184 -1 200 -19 210 -12 7 -25 7 -41 0 -32 -15 -47 -101 -54 -322 -7
-189 -14 -225 -54 -259 -22 -18 -25 -4 -17 74 13 118 -14 205 -65 205 -24 0
-25 -3 -25 -57 0 -32 -5 -76 -10 -98 -6 -22 -14 -82 -19 -134 -9 -90 -9 -97
21 -185 16 -50 40 -109 53 -131 12 -22 25 -58 29 -80 9 -55 52 -243 92 -404
19 -74 32 -136 31 -138 -2 -1 -18 11 -35 27 -27 24 -56 36 -112 45 -3 0 -16 7
-30 15 -14 7 -26 13 -27 12 -2 -1 -9 -2 -15 -2 -9 0 -8 4 2 10 13 8 13 10 -2
10 -9 0 -19 -6 -22 -12 -5 -10 -7 -10 -12 0 -3 6 -12 12 -20 12 -8 0 -14 4
-14 9 0 5 -10 13 -21 16 -17 6 -19 9 -8 16 11 7 11 9 -3 9 -10 0 -34 9 -55 20
-21 11 -73 27 -115 35 -94 20 -132 12 -208 -45 -57 -43 -110 -54 -110 -24 0
13 68 104 100 134 3 3 18 24 33 48 27 42 28 45 12 69 -14 21 -14 27 -3 42 7
10 28 37 46 61 50 67 37 131 -23 116 -20 -5 -25 -3 -25 13 0 20 -32 37 -59 32
-10 -2 -12 5 -8 28 14 69 -27 105 -84 75 -32 -16 -33 -16 -52 10 -27 37 -65
34 -104 -6 -49 -51 -141 -245 -163 -342 -10 -45 0 -269 21 -498 10 -111 10
-119 -9 -143 -16 -20 -21 -22 -26 -10 -3 9 -11 118 -17 244 -9 193 -9 253 4
382 9 85 18 224 22 309 7 182 16 227 79 377 25 62 58 150 72 195 17 55 36 94
56 115 35 36 32 57 -7 75 -26 11 -26 14 -21 77 3 36 9 137 12 223 7 144 6 158
-10 164 -37 14 -57 -27 -82 -163 -25 -144 -42 -225 -48 -230 -1 -2 -22 18 -44
44 -71 82 -76 87 -133 136 -30 27 -77 77 -104 113 -27 35 -54 64 -61 64 -20 0
-44 -29 -44 -54 0 -40 80 -150 243 -330 49 -55 61 -84 30 -71 -35 14 -160 18
-198 5 -30 -10 -41 -21 -61 -64 -29 -62 -29 -65 -3 -137 16 -42 27 -59 40 -59
16 0 17 -4 7 -30 -6 -18 -8 -67 -4 -118 10 -160 10 -158 -57 -347 -14 -38 -37
-128 -52 -200 -24 -116 -49 -215 -91 -370 -8 -27 -14 -57 -14 -67 0 -10 -4
-18 -9 -18 -5 0 -7 -8 -5 -17 2 -10 -2 -40 -10 -68 -14 -49 -14 -49 -15 -14
-1 22 -12 51 -29 75 -15 21 -34 52 -42 68 -30 58 -70 43 -45 -17 14 -33 14
-40 0 -67 -17 -33 -21 -65 -5 -40 6 9 10 10 10 3 0 -6 3 -20 6 -30 5 -15 4
-15 -5 -3 -9 13 -11 13 -11 -1 0 -21 9 -29 26 -22 13 5 13 9 -2 78 -4 17 -4
18 5 4 14 -22 14 -66 1 -159 -6 -41 -12 -102 -13 -135 -1 -33 -12 -87 -24
-120 -12 -33 -27 -87 -33 -120 -7 -33 -27 -118 -45 -190 -19 -71 -37 -151 -41
-177 -3 -26 -11 -51 -18 -56 -6 -4 -42 -16 -79 -25 -90 -23 -118 -43 -202
-143 -38 -46 -78 -84 -87 -84 -20 0 -23 11 -9 26 6 5 17 36 25 69 22 81 22
410 0 510 -8 39 -23 120 -34 180 -36 207 -43 240 -52 259 -6 10 -14 58 -18
106 -4 57 -14 103 -28 131 -21 43 -21 43 -2 64 24 25 24 29 7 47 -21 20 -85
117 -91 136 -6 19 -65 62 -84 62 -7 0 -12 -5 -12 -11 0 -6 -11 -24 -25 -41
-14 -16 -25 -37 -25 -47 0 -9 -14 -30 -30 -46 -18 -17 -30 -39 -30 -54 0 -21
-2 -23 -10 -11 -9 13 -11 13 -20 0 -6 -8 -8 -27 -5 -43 5 -28 71 -139 86 -145
5 -2 9 -9 9 -16 0 -7 9 -21 20 -31 20 -18 21 -18 14 1 -6 16 -4 16 19 -5 23
-21 27 -32 26 -80 -1 -31 0 -90 1 -131 3 -95 -23 -229 -94 -478 -30 -105 -61
-218 -67 -251 -7 -34 -18 -61 -24 -61 -25 1 -35 20 -41 81 -3 35 -12 82 -21
104 -9 25 -11 41 -4 43 7 2 7 12 0 28 -5 14 -9 34 -9 45 0 21 -62 82 -87 85
-8 2 -23 10 -34 20 -10 9 -22 14 -27 9 -4 -4 -1 -10 6 -12 6 -3 10 -9 6 -14
-9 -15 -32 -10 -52 12 -17 18 -24 19 -58 10 -22 -6 -50 -23 -63 -39 -16 -20
-30 -28 -42 -25 -20 5 -27 33 -9 33 6 0 10 6 10 14 0 8 6 16 13 19 6 2 9 8 4
12 -4 5 -13 1 -20 -8 -10 -14 -18 -15 -54 -6 -24 6 -40 15 -37 20 3 5 2 9 -3
10 -4 0 -21 2 -38 4 -20 3 -40 -4 -65 -22 -44 -34 -48 -40 -44 -67 4 -19 4
-20 -4 -1 -9 19 -9 19 -20 0 -10 -17 -13 -18 -22 -5 -9 13 -11 13 -20 0 -8
-12 -10 -9 -10 13 0 20 -4 26 -12 21 -10 -6 -10 -4 0 8 10 12 10 18 1 24 -16
10 28 33 64 34 29 0 36 14 12 24 -12 4 -14 14 -10 40 8 42 -5 51 -92 61 -35 4
-63 11 -63 16 0 4 -9 16 -19 26 -21 19 -63 166 -54 189 2 7 1 19 -4 26 -4 7
-8 54 -9 103 0 77 -4 99 -28 149 -15 32 -30 72 -33 87 -3 15 -15 38 -27 51
-11 12 -20 27 -18 32 2 4 -4 6 -13 2 -9 -3 -13 -2 -10 3 5 10 -32 41 -48 41
-5 0 -7 -9 -4 -20 3 -11 2 -20 -3 -20 -4 0 -11 11 -14 25 -4 16 -11 23 -18 19
-6 -4 -8 -3 -5 3 4 6 0 17 -9 24 -13 10 -17 10 -25 -2 -7 -12 -9 -12 -9 0 0
11 -3 12 -11 4 -9 -9 -8 -18 5 -38 10 -14 15 -32 13 -38 -3 -7 -17 15 -32 48
-43 95 -59 125 -68 125 -5 0 -7 6 -4 13 6 17 -27 39 -48 31 -19 -8 -19 -21 1
-75 16 -46 18 -53 30 -108 6 -31 5 -33 -15 -26 -13 4 -21 2 -21 -6 0 -14 -40
44 -58 84 -6 15 -18 30 -26 33 -9 3 -12 12 -9 21 4 11 2 14 -5 9 -8 -5 -10 -2
-6 8 3 9 2 16 -3 16 -5 0 -10 6 -10 14 0 8 -5 28 -13 45 -9 22 -19 31 -36 31
-35 0 -39 -36 -13 -101 49 -122 58 -157 59 -214 0 -43 8 -75 25 -110 14 -27
25 -56 25 -63 0 -7 20 -35 45 -61 49 -52 53 -62 30 -81 -12 -10 -15 -10 -15 4
0 8 -11 18 -25 22 -18 4 -25 13 -25 31 0 15 -12 37 -32 54 -23 23 -28 33 -20
41 18 18 14 38 -6 38 -10 0 -23 5 -29 11 -7 7 -16 3 -30 -15 -15 -19 -23 -22
-31 -14 -9 9 -17 6 -32 -10 -12 -12 -24 -22 -28 -23 -13 -1 -247 -1 -264 0
-17 1 -68 42 -68 55 0 11 28 6 33 -6 4 -10 6 -10 6 -1 1 18 -17 26 -44 19 -17
-4 -23 -11 -18 -23 4 -10 2 -14 -4 -10 -11 7 -9 -85 3 -104 5 -9 2 -10 -9 -6
-15 6 -29 -13 -31 -43 -1 -14 -8 -16 -62 -19 -15 -1 -24 -10 -28 -27 -5 -20
-11 -24 -24 -19 -42 18 -60 17 -67 -4 -3 -11 -3 -25 0 -31 3 -5 -1 -10 -10
-10 -9 0 -24 -7 -33 -16 -13 -13 -14 -21 -4 -47 8 -22 9 -33 1 -38 -8 -5 -8
-8 0 -13 6 -4 11 -12 11 -18 0 -7 -5 -6 -14 1 -12 10 -16 8 -21 -11 -10 -30
-30 -48 -53 -48 -13 0 -22 -9 -26 -25 -6 -23 -9 -24 -78 -20 -50 3 -77 0 -88
-9 -8 -7 -46 -25 -84 -39 l-69 -27 -86 55 c-47 30 -93 61 -101 68 -29 23 -90
104 -143 189 l-53 84 50 51 c28 28 76 63 106 77 103 48 166 97 215 169 25 37
52 87 59 110 7 23 27 72 46 108 56 114 16 166 -54 70 -51 -70 -62 -77 -82 -56
-11 11 -24 14 -38 10 -33 -11 -80 -11 -93 -2 -7 5 -44 7 -83 5 -66 -3 -70 -3
-65 17 3 11 -2 5 -10 -12 -8 -18 -19 -33 -25 -33 -5 0 5 25 23 55 l31 55 12
-28 12 -27 -2 25 c-1 14 -6 32 -10 39 -7 10 -4 11 12 2 26 -14 32 -14 32 0 0
5 -4 8 -9 5 -5 -3 -11 1 -15 9 -3 8 11 32 34 57 22 24 40 47 40 51 0 5 3 6 8
4 4 -3 21 12 37 33 17 20 45 49 63 63 28 21 38 24 59 16 44 -16 175 -11 203 8
14 10 37 25 51 33 56 33 92 56 113 72 l21 18 -27 24 -26 24 36 15 c20 9 69 25
107 36 70 20 159 68 183 99 19 25 14 51 -12 63 -19 9 -33 7 -72 -11 -101 -45
-211 -63 -232 -37 -6 6 -13 24 -17 39 -5 19 -20 33 -48 47 -23 11 -50 30 -59
41 -10 11 -24 20 -31 20 -7 0 -28 11 -47 25 -52 38 -92 33 -196 -24 -76 -41
-95 -57 -131 -109 -23 -33 -47 -78 -52 -99 -9 -33 -22 -45 -98 -94 -79 -50
-124 -66 -107 -37 4 6 2 13 -3 17 -6 3 -14 17 -18 30 -4 13 -3 21 1 18 5 -3 9
18 9 46 0 49 2 52 47 87 26 19 68 42 94 49 72 21 81 36 77 133 -4 105 7 132
90 218 27 28 68 60 77 60 3 0 11 13 18 28 7 16 25 35 40 43 15 8 29 16 32 19
11 12 63 30 85 30 27 0 42 16 23 23 -7 3 10 3 37 0 28 -4 57 -14 65 -23 21
-23 90 -61 100 -55 4 2 19 -4 33 -15 22 -18 26 -18 38 -4 10 12 14 12 21 2 6
-10 13 -8 27 10 11 12 26 22 35 22 10 0 16 9 16 23 0 12 9 30 20 40 11 9 20
14 20 10 0 -3 9 2 20 12 12 11 18 25 15 36 -7 23 11 34 23 14 11 -21 42 -9 42
16 0 20 16 26 22 9 4 -11 68 18 68 31 0 5 -7 9 -15 9 -8 0 -15 5 -15 10 0 6 9
10 20 10 11 0 20 5 20 10 0 6 13 10 28 10 37 0 43 7 32 36 -9 22 -7 24 18 24
15 0 22 -4 16 -8 -6 -4 -14 -22 -17 -40 -6 -29 -5 -31 8 -18 8 8 23 17 34 21
10 3 23 15 29 28 9 18 11 19 11 5 1 -10 8 -18 16 -18 19 0 71 26 104 51 13 11
34 19 48 19 13 0 26 7 30 18 3 9 14 36 25 60 17 39 21 42 58 42 36 0 40 -2 40
-25 0 -23 2 -25 21 -14 16 8 18 13 9 19 -9 5 -9 9 -1 14 6 4 11 18 11 30 0 20
4 22 26 18 14 -2 30 -15 36 -27 9 -19 51 -52 71 -54 4 0 23 -7 41 -15 19 -8
44 -12 54 -9 11 2 23 0 26 -6 4 -6 40 -11 84 -11 91 0 144 -15 254 -70 124
-63 199 -79 385 -81 149 -1 162 0 233 26 68 24 93 32 111 34 10 2 79 71 79 80
0 5 7 11 15 15 8 3 15 10 15 15 0 6 11 22 25 37 14 15 25 33 25 40 0 8 3 14 8
14 4 0 18 17 32 38 14 20 59 71 100 113 41 42 83 90 93 107 l18 32 -2125 0
-2126 0 0 -3010z m2400 2706 c0 -3 -4 -8 -10 -11 -5 -3 -10 -1 -10 4 0 6 5 11
10 11 6 0 10 -2 10 -4z m-2014 -127 c36 -34 55 -102 35 -122 -6 -6 -11 -20
-12 -31 0 -12 -3 -15 -6 -8 -4 10 -8 9 -18 -4 -12 -17 -15 -17 -66 0 -102 33
-136 119 -70 178 28 25 40 29 69 24 20 -3 49 -19 68 -37z m9229 11 c-4 -13 1
-19 20 -24 14 -4 25 -13 25 -20 0 -8 7 -16 15 -20 8 -3 24 -24 35 -48 32 -67
74 -123 95 -127 11 -2 39 -16 63 -32 24 -16 46 -29 50 -29 21 0 -4 -96 -32
-119 -21 -18 -21 -41 1 -41 9 0 14 -3 10 -6 -3 -4 9 -25 27 -48 18 -22 36 -48
39 -57 3 -10 27 -24 54 -33 27 -9 65 -32 84 -51 31 -30 36 -40 38 -89 2 -54 0
-57 -40 -96 -23 -22 -52 -41 -63 -41 -12 -1 -33 -2 -48 -3 -16 -1 -28 1 -28 5
0 5 -9 6 -20 4 -12 -2 -24 4 -31 16 -6 12 -25 27 -42 34 -18 8 -28 14 -24 15
5 0 0 14 -10 31 -16 26 -43 40 -80 42 -5 0 -16 13 -25 28 -15 25 -38 35 -70
30 -4 0 -6 17 -5 39 1 29 -5 46 -20 62 -20 19 -26 20 -61 10 -51 -16 -66 -34
-108 -132 -34 -81 -97 -180 -114 -180 -15 0 -38 40 -61 107 -40 111 -141 180
-204 139 l-26 -17 39 -44 c22 -25 46 -64 54 -87 29 -84 58 -185 58 -204 0 -25
54 -98 147 -198 39 -42 73 -87 76 -99 23 -95 129 -388 179 -497 96 -204 114
-268 106 -361 -2 -22 -52 -19 -105 6 -41 20 -42 21 -48 85 -7 74 -57 189 -106
244 -31 36 -103 79 -113 69 -3 -4 -17 4 -31 17 -17 16 -32 21 -52 18 -25 -5
-32 0 -68 56 -41 62 -71 80 -100 56 -11 -9 -9 -22 14 -78 33 -79 44 -122 33
-122 -19 0 -112 110 -147 173 -40 73 -56 87 -80 67 -24 -20 -18 -57 21 -134
51 -99 76 -201 45 -182 -17 11 -30 -13 -32 -56 -2 -26 -6 -45 -10 -42 -4 2
-10 -5 -14 -16 -7 -22 -20 -26 -30 -10 -12 20 -31 9 -40 -22 -7 -23 -15 -32
-28 -30 -9 2 -20 -4 -23 -12 -3 -9 -9 -14 -14 -11 -4 2 -5 -7 -2 -22 4 -20 2
-24 -8 -18 -21 13 -4 -51 35 -132 39 -81 40 -88 21 -161 -7 -29 -9 -52 -4 -52
5 0 0 -10 -12 -22 -11 -12 -20 -29 -20 -37 0 -14 -1 -14 -10 -1 -9 13 -10 13
-10 -1 0 -8 5 -20 12 -27 6 -6 8 -15 4 -19 -4 -4 -11 -1 -15 6 -7 10 -10 8
-16 -8 -4 -13 -4 -25 -1 -28 3 -4 6 2 6 12 0 10 2 16 5 13 4 -3 3 -17 0 -31
-5 -17 -12 -24 -21 -20 -8 3 -14 2 -13 -3 2 -17 -13 -54 -21 -49 -4 3 -10 -4
-13 -15 -3 -11 -1 -18 4 -14 5 3 9 0 9 -7 0 -18 -31 -49 -48 -49 -12 0 -12 -2
-1 -17 12 -15 12 -16 -2 -11 -15 6 -15 4 -3 -22 10 -19 11 -35 5 -51 -5 -13
-10 -19 -10 -12 -1 20 -31 3 -31 -18 0 -10 -4 -19 -10 -19 -6 0 -6 9 -1 23 6
14 6 30 0 38 -7 12 -9 12 -10 -1 -1 -8 -1 -18 0 -22 0 -4 -6 -22 -14 -41 -8
-19 -12 -37 -9 -39 7 -8 -18 -58 -27 -53 -4 3 -10 1 -13 -4 -3 -5 1 -11 9 -15
8 -3 15 -11 15 -18 0 -9 -3 -9 -10 2 -16 26 -29 -2 -32 -72 -2 -55 -6 -68 -19
-68 -13 0 -17 15 -22 73 -4 39 -9 89 -13 110 -6 32 -4 37 10 31 19 -7 19 -9 5
58 -6 29 -19 60 -28 69 -9 9 -36 42 -61 74 -39 50 -155 135 -185 135 -5 0 -19
10 -32 22 -20 19 -34 22 -90 20 -37 -1 -73 -7 -82 -15 -9 -7 -34 -21 -56 -31
-22 -10 -53 -25 -70 -33 -16 -7 -54 -36 -83 -63 -29 -27 -66 -57 -81 -66 -24
-14 -29 -25 -34 -73 -3 -31 -3 -113 -1 -184 3 -80 1 -135 -6 -147 -18 -34
-293 -232 -301 -218 -4 7 -10 31 -13 53 -20 128 -25 168 -31 240 -15 205 -26
315 -36 370 -6 33 -9 89 -6 125 4 58 11 77 65 170 34 58 70 121 81 140 27 49
124 136 223 198 77 49 88 60 131 134 26 44 47 86 47 93 0 20 31 116 53 163 16
35 17 48 8 68 -6 13 -14 24 -19 24 -5 0 -26 -25 -46 -55 -49 -71 -62 -81 -81
-65 -10 8 -24 9 -42 4 -16 -5 -68 -9 -118 -9 -102 0 -149 -17 -177 -63 -9 -15
-30 -49 -47 -77 -17 -27 -31 -62 -31 -76 0 -14 -12 -48 -26 -75 -15 -27 -39
-72 -53 -99 -14 -28 -34 -61 -44 -75 -15 -21 -19 -23 -27 -10 -5 8 -10 21 -10
28 0 12 -26 77 -139 352 -78 186 -124 352 -117 419 3 39 12 61 30 80 14 14 41
61 60 104 43 94 47 146 13 191 -13 17 -27 45 -31 61 -9 34 -33 65 -51 65 -16
0 -3 65 24 118 10 21 32 75 49 122 40 108 72 172 72 143 0 -11 8 -27 17 -34 9
-8 14 -9 10 -2 -10 16 2 43 19 43 8 0 14 5 14 12 0 6 7 3 15 -8 8 -10 14 -14
13 -8 -2 7 2 12 7 12 6 0 9 -4 8 -9 -2 -4 3 -6 11 -3 8 3 16 15 19 26 5 16 11
19 30 14 16 -4 29 0 37 10 7 8 20 12 29 9 9 -4 22 2 31 15 11 15 34 23 80 30
79 11 143 40 193 88 30 30 37 43 37 75 0 46 32 87 68 87 13 0 32 4 42 10 12 7
33 5 67 -5 49 -15 67 -15 273 5 52 5 176 12 274 16 108 3 194 11 217 19 21 8
41 10 43 6 3 -4 39 -6 81 -3 68 4 75 3 76 -14 1 -17 2 -17 6 -1 2 9 13 17 24
17 11 0 18 -4 15 -9 -11 -17 25 -33 91 -42 83 -10 177 -36 181 -49 2 -6 10
-10 17 -10 8 0 22 -11 33 -25 11 -14 25 -25 32 -25 6 0 23 -9 37 -20 14 -11
33 -20 42 -20 18 -1 81 -54 81 -70 0 -18 29 -11 40 9 5 11 10 31 10 46 0 14 7
28 15 31 10 4 15 20 15 49 0 23 7 61 15 84 8 23 14 45 14 49 -4 26 6 45 46 85
25 26 45 53 45 61 0 15 26 25 48 18 7 -2 10 -12 7 -22z m-7375 -50 c0 -5 -16
-10 -36 -10 -21 0 -33 4 -29 10 3 6 19 10 36 10 16 0 29 -4 29 -10z m-1455
-37 c19 -20 38 -46 41 -57 3 -12 4 -91 2 -176 -3 -154 -3 -156 -37 -223 -19
-38 -46 -81 -61 -95 -28 -28 -146 -92 -170 -92 -22 0 -100 -32 -100 -41 0 -16
-56 -34 -95 -29 l-40 5 0 54 c0 43 4 56 19 65 11 6 27 17 35 23 9 7 25 19 36
27 26 19 29 112 4 127 -13 7 -17 25 -19 71 -3 108 1 172 9 178 5 3 11 14 15
26 8 26 79 57 95 41 7 -7 28 1 68 29 32 21 61 40 65 42 4 2 22 17 39 33 17 16
37 29 45 29 7 0 29 -17 49 -37z m6222 -399 c-14 -12 -23 -25 -19 -28 3 -4 -1
-4 -11 0 -24 9 -21 23 8 30 14 3 23 9 20 13 -2 4 3 8 12 8 12 0 9 -6 -10 -23z
m63 16 c8 -5 11 -10 5 -10 -5 0 -17 5 -25 10 -8 5 -10 10 -5 10 6 0 17 -5 25
-10z m50 -31 c0 -6 -4 -7 -10 -4 -5 3 -10 11 -10 16 0 6 5 7 10 4 6 -3 10 -11
10 -16z m-153 -47 c-8 -10 -17 -26 -21 -36 -3 -10 -9 -17 -12 -14 -7 8 17 58
28 58 5 0 6 5 2 12 -5 7 -3 8 5 4 10 -6 9 -12 -2 -24z m-37 -71 c0 -3 -4 -12
-9 -19 -6 -11 -9 -9 -13 5 -3 12 0 20 8 20 8 0 14 -3 14 -6z m2903 -611 c-3
-12 -8 -19 -11 -16 -5 6 5 36 12 36 2 0 2 -9 -1 -20z m-4 -80 c0 -9 -4 -8 -9
5 -5 11 -9 27 -9 35 0 9 4 8 9 -5 5 -11 9 -27 9 -35z m-3379 -610 c0 -5 24
-22 53 -36 28 -14 59 -32 67 -39 8 -8 28 -17 44 -21 25 -6 28 -5 22 13 -12 36
24 37 73 1 18 -13 27 -34 36 -83 7 -37 9 -68 4 -71 -5 -3 -9 3 -9 13 0 15 -2
16 -10 3 -9 -13 -10 -13 -10 0 0 9 -18 27 -40 40 -22 14 -40 31 -40 38 0 7 -4
10 -10 7 -5 -3 -18 -1 -27 4 -13 8 -14 10 -4 11 21 0 -19 29 -41 30 -10 0 -27
9 -38 20 -11 11 -23 20 -28 20 -8 0 -62 48 -62 55 0 3 5 5 10 5 6 0 10 -4 10
-10z m-3876 -96 c3 -8 2 -12 -4 -9 -6 3 -10 10 -10 16 0 14 7 11 14 -7z m30
-30 c3 -8 2 -12 -4 -9 -6 3 -10 10 -10 16 0 14 7 11 14 -7z m2359 -4 c-3 -12
-8 -19 -11 -16 -5 6 5 36 12 36 2 0 2 -9 -1 -20z m27 -43 c0 -5 -4 -5 -10 -2
-5 3 -10 14 -10 23 0 15 2 15 10 2 5 -8 10 -19 10 -23z m-2254 -104 c-3 -3
-51 15 -65 23 -1 2 0 7 4 13 4 7 17 3 35 -11 17 -12 28 -23 26 -25z m3619 37
c3 -5 19 -10 35 -10 24 0 64 -35 244 -214 219 -219 236 -241 236 -313 0 -20
-55 -123 -66 -123 -2 0 -40 38 -85 85 -103 107 -160 139 -246 137 -34 0 -72
-7 -85 -14 -15 -8 -61 -13 -131 -13 l-107 0 -9 30 c-15 45 -61 252 -61 270 0
2 25 20 56 40 31 20 77 55 102 79 26 24 54 46 62 49 24 9 48 8 55 -3z m2912
-64 c32 -29 93 -156 93 -194 0 -19 -23 -23 -48 -8 -8 4 -12 1 -12 -10 0 -17
-1 -17 -13 0 -11 15 -18 16 -33 8 -10 -6 -32 -14 -47 -17 -25 -5 -28 -9 -22
-32 4 -17 1 -29 -7 -35 -8 -5 -4 -6 12 -3 19 4 31 0 44 -14 19 -21 19 -21 -40
-20 -32 1 -90 -4 -127 -10 -63 -11 -101 -7 -80 8 8 6 18 31 79 200 18 49 37
79 81 123 62 63 57 63 120 4z m-7537 -31 c0 -8 -4 -15 -10 -15 -5 0 -7 7 -4
15 4 8 8 15 10 15 2 0 4 -7 4 -15z m8757 -242 c4 -50 3 -65 -6 -58 -6 6 -13
44 -15 85 -6 95 12 71 21 -27z m-4853 -235 c3 -62 11 -157 18 -211 9 -72 9
-100 1 -108 -9 -9 -13 -2 -17 27 -4 22 -11 59 -16 84 -6 25 -13 70 -16 100 -3
30 -10 59 -15 65 -5 5 -9 20 -9 33 0 28 32 122 41 122 3 0 9 -51 13 -112z
m-2364 37 c11 -13 10 -14 -4 -9 -9 3 -16 10 -16 15 0 13 6 11 20 -6z m-2696
-71 c3 -8 2 -12 -4 -9 -6 3 -10 10 -10 16 0 14 7 11 14 -7z m8116 -31 c-11
-17 -11 -17 -6 0 3 10 6 24 7 30 0 9 2 9 5 0 3 -7 0 -20 -6 -30z m-8006 -108
c-4 -15 -3 -16 4 -6 7 10 19 3 53 -35 24 -26 74 -77 112 -113 37 -36 66 -69
64 -74 -1 -5 -52 -39 -112 -76 -78 -48 -110 -74 -110 -87 0 -16 7 -19 44 -17
54 3 85 14 178 69 l72 43 34 -47 c19 -26 45 -66 58 -88 l23 -42 -17 -77 c-16
-75 -54 -145 -79 -145 -6 0 -22 -12 -35 -26 -13 -15 -30 -23 -38 -20 -9 3 -28
0 -43 -6 -59 -24 -109 -2 -202 86 -95 91 -126 139 -129 206 0 18 2 21 8 11 5
-8 7 8 6 40 -2 30 1 59 6 65 6 7 8 24 5 38 -3 14 0 26 5 26 7 0 8 12 4 30 -6
26 -4 29 11 23 12 -4 15 -3 10 5 -4 7 -4 18 0 24 5 7 9 37 10 66 1 32 8 60 18
71 19 21 21 35 4 25 -10 -6 -10 -4 0 7 6 7 12 20 12 29 0 12 -2 13 -9 1 -6
-10 -9 -4 -8 20 1 22 -2 33 -10 32 -7 -2 -10 4 -6 13 9 23 64 -45 57 -71z
m7963 -37 c-3 -8 -6 -5 -6 6 -1 11 2 17 5 13 3 -3 4 -12 1 -19z m-60 -130 c-3
-8 -6 -5 -6 6 -1 11 2 17 5 13 3 -3 4 -12 1 -19z m-35 -194 c-6 -11 -11 -13
-16 -5 -4 6 -2 11 3 11 6 0 12 15 12 33 2 29 2 30 6 5 2 -15 0 -35 -5 -44z
m-837 -212 c28 -53 30 -91 10 -177 -10 -43 -22 -66 -42 -83 -15 -12 -36 -29
-45 -38 -18 -17 -38 -11 -38 12 0 19 -7 18 -39 -5 -26 -19 -28 -19 -38 -1 -7
10 -9 28 -6 40 4 15 2 21 -5 17 -13 -9 -42 2 -42 15 0 6 16 7 43 2 68 -11 72
-11 69 11 -2 11 -7 22 -11 25 -3 3 -17 26 -31 52 -13 26 -35 52 -48 57 -17 8
-22 16 -17 31 5 14 2 20 -9 20 -30 0 -15 15 80 80 52 35 100 70 106 78 9 11
14 2 25 -37 7 -28 24 -73 38 -99z m-3535 3 c0 -15 -42 -85 -50 -85 -14 0 -13
8 12 51 19 34 38 51 38 34z m3253 -30 c-3 -9 -8 -14 -10 -11 -3 3 -2 9 2 15 9
16 15 13 8 -4z m-16 -77 c-2 -13 -4 -5 -4 17 -1 22 1 32 4 23 2 -10 2 -28 0
-40z m20 -10 c-2 -13 -4 -3 -4 22 0 25 2 35 4 23 2 -13 2 -33 0 -45z m-3320
-10 c-3 -7 -5 -2 -5 12 0 14 2 19 5 13 2 -7 2 -19 0 -25z m-61 -56 c-17 -16
-18 -16 -5 5 7 12 15 20 18 17 3 -2 -3 -12 -13 -22z m4358 -102 c-7 -112 -8
-114 -36 -98 -13 6 -30 11 -40 10 -31 -5 -29 17 6 70 19 29 40 70 47 90 20 57
29 26 23 -72z m-7827 -1546 c-3 -3 -12 -4 -19 -1 -8 3 -5 6 6 6 11 1 17 -2 13
-5z"/>
<path d="M7075 5019 c-4 -6 -5 -12 -2 -15 2 -3 7 2 10 11 7 17 1 20 -8 4z"/>
<path d="M7086 4993 c-6 -14 -5 -15 5 -6 7 7 10 15 7 18 -3 3 -9 -2 -12 -12z"/>
<path d="M9481 4984 c0 -11 3 -14 6 -6 3 7 2 16 -1 19 -3 4 -6 -2 -5 -13z"/>
<path d="M8650 2795 c0 -5 5 -17 10 -25 5 -8 10 -10 10 -5 0 6 -5 17 -10 25
-5 8 -10 11 -10 5z"/>
<path d="M8630 2760 c0 -5 5 -10 10 -10 6 0 10 5 10 10 0 6 -4 10 -10 10 -5 0
-10 -4 -10 -10z"/>
<path d="M7400 2249 c0 -5 5 -7 10 -4 6 3 10 8 10 11 0 2 -4 4 -10 4 -5 0 -10
-5 -10 -11z"/>
<path d="M7600 1870 c0 -21 17 -46 25 -38 4 4 0 17 -9 30 -10 14 -16 17 -16 8z"/>
<path d="M3120 5238 c0 -4 7 -8 15 -8 8 0 15 4 15 8 0 5 -7 9 -15 9 -8 0 -15
-4 -15 -9z"/>
<path d="M1070 4190 c0 -5 5 -10 11 -10 5 0 7 5 4 10 -3 6 -8 10 -11 10 -2 0
-4 -4 -4 -10z"/>
<path d="M1020 4081 c0 -6 4 -13 10 -16 6 -3 7 1 4 9 -7 18 -14 21 -14 7z"/>
<path d="M970 4061 c0 -5 6 -14 14 -20 12 -10 13 -8 9 8 -5 21 -23 30 -23 12z"/>
<path d="M4911 3974 c0 -11 3 -14 6 -6 3 7 2 16 -1 19 -3 4 -6 -2 -5 -13z"/>
<path d="M4930 3971 c0 -6 5 -13 10 -16 6 -3 10 1 10 9 0 9 -4 16 -10 16 -5 0
-10 -4 -10 -9z"/>
<path d="M3996 3934 c-10 -25 -1 -27 19 -4 15 17 16 20 3 20 -9 0 -19 -7 -22
-16z"/>
<path d="M4975 3900 c8 -38 26 -70 37 -70 5 0 8 5 8 10 0 6 -4 10 -10 10 -16
0 -12 18 5 22 11 2 7 11 -16 33 l-31 29 7 -34z"/>
<path d="M5060 3791 c0 -7 -5 -9 -12 -5 -7 5 -8 3 -3 -5 5 -9 10 -10 18 -2 6
6 8 14 4 18 -4 3 -7 1 -7 -6z"/>
<path d="M1345 3619 c-4 -6 -5 -12 -2 -15 2 -3 7 2 10 11 7 17 1 20 -8 4z"/>
<path d="M3868 3476 c-16 -8 -28 -12 -28 -9 0 4 -9 -3 -20 -15 -12 -12 -25
-22 -30 -22 -6 0 -10 -5 -10 -10 0 -7 7 -7 21 0 26 14 38 4 16 -13 -17 -13
-34 -67 -22 -67 5 0 23 11 41 25 18 14 39 25 46 25 7 0 38 16 68 35 48 31 51
35 27 35 -15 0 -27 -3 -27 -7 0 -5 -17 -9 -38 -10 l-37 -2 43 16 c23 8 40 19
36 24 -8 14 -55 11 -86 -5z m-1 -42 c-3 -3 -12 -4 -19 -1 -8 3 -5 6 6 6 11 1
17 -2 13 -5z"/>
<path d="M3952 3404 c-102 -54 -132 -75 -132 -94 0 -9 -7 -23 -15 -30 -12 -10
-15 -9 -16 6 0 17 -1 17 -9 -2 -4 -11 -30 -35 -57 -52 -68 -44 -131 -115 -87
-98 12 5 15 2 11 -13 -3 -15 4 -21 37 -31 22 -7 53 -21 69 -32 25 -18 28 -18
43 -3 38 38 110 64 175 64 83 -1 95 13 104 119 12 143 11 152 -17 152 -18 0
-20 2 -9 9 12 8 12 12 2 25 -17 21 -24 19 -99 -20z m77 -17 c-2 -1 -13 -9 -24
-17 -19 -14 -19 -14 -6 3 7 9 18 17 24 17 6 0 8 -1 6 -3z m6 -126 c-7 -23 -25
-29 -25 -8 0 14 21 39 28 33 2 -3 1 -14 -3 -25z"/>
<path d="M3245 2980 c-3 -6 1 -7 9 -4 18 7 21 14 7 14 -6 0 -13 -4 -16 -10z"/>
<path d="M3901 2794 c0 -11 3 -14 6 -6 3 7 2 16 -1 19 -3 4 -6 -2 -5 -13z"/>
</g>
</svg>
