<svg xmlns="http://www.w3.org/2000/svg" width="30" height="30" viewBox="0 0 30 30"><g transform="translate(-158 -226)"><g transform="translate(158 226)" fill="none" stroke="#fff" stroke-width="3"><circle cx="15" cy="15" r="15" stroke="none"/><circle cx="15" cy="15" r="13.5" fill="none"/></g><path d="M5.525-6.35v.65h3.9v-.65c0-3.125,3.6-2.55,3.6-6.275,0-3.275-2.45-5.05-5.775-5.05-3.3,0-6.2,1.625-6.125,6.05h3.65c0-1.575.55-2.925,2.475-2.925a1.862,1.862,0,0,1,2.125,1.925C9.375-10.5,5.525-10.55,5.525-6.35Zm-.35,4.425A2.182,2.182,0,0,0,7.375.25,2.188,2.188,0,0,0,9.6-1.925,2.2,2.2,0,0,0,7.375-4.1,2.2,2.2,0,0,0,5.175-1.925Z" transform="translate(166 250)" fill="#fff"/></g></svg>