<?xml version="1.0" encoding="UTF-8"?>
<svg id="Lag_2" data-name="Lag 2" xmlns="http://www.w3.org/2000/svg" viewBox="0 0 49.82 50.39">
  <defs>
    <style>
      .cls-1 {
        fill: #fff;
      }

      .cls-1, .cls-2 {
        stroke: #fff;
        stroke-linecap: round;
        stroke-linejoin: round;
        stroke-width: 4px;
      }

      .cls-2 {
        fill: none;
      }
    </style>
  </defs>
  <g id="Lag_4" data-name="Lag 4">
    <path class="cls-2" d="M39.01,6.04h7.23c.37,0,.74,.11,1.02,.34,.03,.03,.07,.06,.1,.09,.13,.13,.22,.26,.29,.39,.12,.24,.17,.5,.17,.77v7.25c-.07,.58,.16,2.58-2.44,4.66-2.42,1.93-5.73,2.75-6.37,2.71V3.08c0-.05,.04-.48-.29-.79-.26-.25-.58-.26-.65-.26-2.64-.02-25.31-.08-26.31,0-.07,0-.44,.04-.71,.37-.23,.28-.23,.59-.23,.67V22.25c-.64,.04-3.95-.78-6.37-2.71-2.6-2.08-2.37-4.08-2.44-4.66,.03-3.06-.03-4.16,0-7.22-.01-.11-.05-.6,.29-1.06,.03-.03,.05-.07,.08-.1,.27-.31,.68-.47,1.1-.47h7.35"/>
    <path class="cls-2" d="M10.82,22.5c2.11,6.07,7.88,10.13,14.26,10.06,6.26-.07,11.86-4.11,13.93-10.06"/>
    <line class="cls-2" x1="21.5" y1="32.2" x2="21.5" y2="40"/>
    <line class="cls-2" x1="28.15" y1="40" x2="28.15" y2="32.2"/>
    <path class="cls-2" d="M24.82,40.01l3.64,.02,9.13,4.85c.11,.06,.26,.16,.4,.32h0c.21,.23,.32,.53,.32,.85v1.12c0,.23-.05,.46-.17,.66-.06,.09-.13,.19-.23,.27-.29,.26-.62,.29-.72,.3l-12.37-.02"/>
    <line class="cls-2" x1="21.14" y1="39.99" x2="24.82" y2="40.01"/>
    <line class="cls-2" x1="18.49" y1="18.52" x2="18.49" y2="10.01"/>
    <path class="cls-2" d="M18.49,18.8c-.01,.47,0,2.31,1.35,3.95,1.16,1.41,2.61,1.82,3.1,1.93"/>
    <path class="cls-2" d="M25.01,40.01l-3.64,.02-9.13,4.85c-.11,.06-.26,.16-.4,.32h0c-.21,.23-.32,.53-.32,.85v1.12c0,.23,.05,.46,.17,.66,.06,.09,.13,.19,.23,.27,.29,.26,.62,.29,.72,.3l12.37-.02"/>
    <rect class="cls-1" x="21.5" y="34.18" width="6.65" height="4.09"/>
  </g>
</svg>