<?xml version="1.0" encoding="UTF-8"?><svg id="Lag_2" xmlns="http://www.w3.org/2000/svg" viewBox="0 0 24.44 22.87"><defs><style>.cls-1{fill:#1d1d1b;}</style></defs><g id="Lag_3"><g><ellipse class="cls-1" cx="7.98" cy="18.99" rx="2.54" ry="3.88"/><ellipse class="cls-1" cx="12.06" cy="18.99" rx="2.54" ry="3.88"/><ellipse class="cls-1" cx="16.46" cy="18.99" rx="2.54" ry="3.88"/></g><path class="cls-1" d="M12.22,0C5.47,0,0,4.33,0,9.68s5.47,9.68,12.22,9.68,12.22-4.33,12.22-9.68S18.97,0,12.22,0ZM7.98,11.19c-1.35,0-2.45-1.1-2.45-2.45s1.1-2.45,2.45-2.45,2.45,1.1,2.45,2.45-1.1,2.45-2.45,2.45Zm8.47,0c-1.35,0-2.45-1.1-2.45-2.45s1.1-2.45,2.45-2.45,2.45,1.1,2.45,2.45-1.1,2.45-2.45,2.45Z"/></g></svg>