<?xml version="1.0" encoding="UTF-8"?><svg id="Lag_2" xmlns="http://www.w3.org/2000/svg" viewBox="0 0 50 40.44"><defs><style>.cls-1{fill:#fff;}</style></defs><g id="House"><g><g><circle class="cls-1" cx="24.88" cy="12.57" r="7.14"/><path class="cls-1" d="M21.01,20.83h7.74c3.48,0,6.31,2.83,6.31,6.31v13.3H14.7v-13.3c0-3.48,2.83-6.31,6.31-6.31Z"/></g><g><circle class="cls-1" cx="10.18" cy="7.14" r="7.14"/><path class="cls-1" d="M13.64,26.95c0-3.62,2.7-6.61,6.2-7.07-1.06-2.62-3.62-4.48-6.62-4.48H7.14c-3.94,0-7.14,3.2-7.14,7.14v12.47H13.64v-8.06Z"/></g><g><circle class="cls-1" cx="39.82" cy="7.14" r="7.14"/><path class="cls-1" d="M42.86,15.4h-6.09c-2.97,0-5.51,1.81-6.59,4.39,3.36,.58,5.92,3.5,5.92,7.03v8.2h13.89v-12.47c0-3.94-3.2-7.14-7.14-7.14Z"/></g></g></g></svg>